<?xml version="1.0" encoding="UTF-8"?>
<svg version="1.1" xmlns="http://www.w3.org/2000/svg" width="447" height="559">
<path d="M0 0 C4.45911577 0.40537416 7.75057373 1.78943787 11.4375 4.3125 C13.76625487 7.29621717 14.4375 8.52840855 14.4375 12.3125 C15.0975 12.3125 15.7575 12.3125 16.4375 12.3125 C17.0975 10.9925 17.7575 9.6725 18.4375 8.3125 C20.8125 8.125 20.8125 8.125 23.4375 8.3125 C25.4375 11.3125 25.4375 11.3125 25.25 13.125 C24.4375 15.3125 24.4375 15.3125 22.875 18.25 C21.44179721 21.30334508 21.14569388 23.005364 21.4375 26.3125 C22.4275 26.6425 23.4175 26.9725 24.4375 27.3125 C26.4175 23.3525 28.3975 19.3925 30.4375 15.3125 C32.4175 15.3125 34.3975 15.3125 36.4375 15.3125 C37.4375 16.3125 37.4375 16.3125 37.5625 19.25 C37.4375 22.3125 37.4375 22.3125 36.4375 24.3125 C37.4275 23.9825 38.4175 23.6525 39.4375 23.3125 C45.902148 22.54826836 50.245458 23.31030096 55.4375 27.3125 C56.375 30.0625 56.375 30.0625 56.4375 32.3125 C57.30375 32.209375 58.17 32.10625 59.0625 32 C63.42449587 32.40388851 65.44218093 34.37354446 68.4375 37.3125 C69.365625 38.1375 70.29375 38.9625 71.25 39.8125 C73.54973954 42.44077376 74.14357127 43.88333154 74.4375 47.3125 C76.0875 47.6425 77.7375 47.9725 79.4375 48.3125 C80.1875 51.0625 80.1875 51.0625 80.4375 54.3125 C78.625 56.6875 78.625 56.6875 76.4375 58.3125 C75.7775 58.3125 75.1175 58.3125 74.4375 58.3125 C74.4375 58.9725 74.4375 59.6325 74.4375 60.3125 C73.4475 60.8075 73.4475 60.8075 72.4375 61.3125 C71.78194881 63.83983235 71.78194881 63.83983235 71.4375 66.3125 C73.0875 66.3125 74.7375 66.3125 76.4375 66.3125 C76.4375 65.6525 76.4375 64.9925 76.4375 64.3125 C79.26522667 61.16695967 82.03520871 58.56179623 86.25 57.8125 C88.4375 58.3125 88.4375 58.3125 90.4375 60.3125 C90.0625 62.9375 90.0625 62.9375 89.4375 65.3125 C90.30375 65.291875 91.17 65.27125 92.0625 65.25 C96.57563004 66.6708002 97.95538211 68.87343642 100.375 72.82421875 C102.43893456 77.65777138 101.05808158 81.45075525 99.4375 86.3125 C100.0975 85.9825 100.7575 85.6525 101.4375 85.3125 C103.43710012 85.272508 105.43797242 85.26903201 107.4375 85.3125 C107.85902344 86.09496094 108.28054688 86.87742187 108.71484375 87.68359375 C109.26269531 88.69550781 109.81054688 89.70742187 110.375 90.75 C110.92027344 91.75933594 111.46554687 92.76867187 112.02734375 93.80859375 C113.21449468 96.17920493 113.21449468 96.17920493 114.4375 97.3125 C114.5625 100.3125 114.5625 100.3125 114.4375 103.3125 C114.1075 103.6425 113.7775 103.9725 113.4375 104.3125 C112.303125 104.27125 111.16875 104.23 110 104.1875 C108.824375 104.22875 107.64875 104.27 106.4375 104.3125 C105.7775 105.3025 105.1175 106.2925 104.4375 107.3125 C101.8125 107.5 101.8125 107.5 99.4375 107.3125 C99.93506092 110.06891416 99.93506092 110.06891416 101.4375 112.3125 C101.47830783 114.31208364 101.48004356 116.31295254 101.4375 118.3125 C96.6875 119.4375 96.6875 119.4375 94.4375 118.3125 C94.19 117.508125 93.9425 116.70375 93.6875 115.875 C92.54573757 112.62097709 91.24480678 110.22086018 89.4375 107.3125 C87.23078921 103.72996708 85.37145599 100.46341553 84.4375 96.3125 C84.7675 95.6525 85.0975 94.9925 85.4375 94.3125 C84.1175 94.3125 82.7975 94.3125 81.4375 94.3125 C81.27067728 89.39122966 81.18921948 85.80906104 83.4375 81.3125 C82.4475 81.9725 81.4575 82.6325 80.4375 83.3125 C77.25 83.4375 77.25 83.4375 74.4375 83.3125 C74.1075 81.6625 73.7775 80.0125 73.4375 78.3125 C72.4475 78.3125 71.4575 78.3125 70.4375 78.3125 C66.60896795 74.7013082 63.21081982 70.40262893 62.3125 65.125 C62.50064663 59.38652767 64.25170612 56.58102368 68.125 52.4375 C68.888125 51.73625 69.65125 51.035 70.4375 50.3125 C68.4575 49.6525 66.4775 48.9925 64.4375 48.3125 C63.85742188 49.04597656 63.27734375 49.77945313 62.6796875 50.53515625 C61.89851563 51.47230469 61.11734375 52.40945312 60.3125 53.375 C59.16394531 54.78458984 59.16394531 54.78458984 57.9921875 56.22265625 C55.4375 58.3125 55.4375 58.3125 52.1328125 58.12109375 C51.24335938 57.85425781 50.35390625 57.58742187 49.4375 57.3125 C49.2079289 53.94545715 49.09806471 51.89879732 50.8125 48.9375 C51.34875 48.40125 51.885 47.865 52.4375 47.3125 C53.0975 47.3125 53.7575 47.3125 54.4375 47.3125 C55.8981285 44.66511084 56.4375 43.41801666 56.4375 40.3125 C55.26355543 37.63368433 55.26355543 37.63368433 53.4375 35.3125 C51.51111988 34.56006445 51.51111988 34.56006445 49.4375 34.3125 C48.798125 33.94125 48.15875 33.57 47.5 33.1875 C44.81113338 32.04676871 43.19891748 32.54543959 40.4375 33.3125 C40.1075 34.6325 39.7775 35.9525 39.4375 37.3125 C40.2625 37.76625 41.0875 38.22 41.9375 38.6875 C42.7625 39.22375 43.5875 39.76 44.4375 40.3125 C44.4375 40.9725 44.4375 41.6325 44.4375 42.3125 C45.4275 42.6425 46.4175 42.9725 47.4375 43.3125 C46.5625 48.1875 46.5625 48.1875 45.4375 49.3125 C40.07033315 49.00285576 37.4191704 47.85176258 33.4375 44.3125 C32.4475 43.9825 31.4575 43.6525 30.4375 43.3125 C30.4375 42.6525 30.4375 41.9925 30.4375 41.3125 C29.4475 40.9825 28.4575 40.6525 27.4375 40.3125 C27.4375 39.6525 27.4375 38.9925 27.4375 38.3125 C26.40625 38.23 25.375 38.1475 24.3125 38.0625 C19.99837833 37.22750871 17.78755057 36.12958798 14.4375 33.3125 C11.75306989 29.19637383 11.08884243 26.193706 11.4375 21.3125 C10.7775 20.9825 10.1175 20.6525 9.4375 20.3125 C9.623125 21.611875 9.80875 22.91125 10 24.25 C10.31640625 26.46484375 10.31640625 26.46484375 10.4375 28.3125 C9.4375 29.3125 9.4375 29.3125 7.0625 29.6875 C4.4375 29.3125 4.4375 29.3125 2.75 27.125 C1.54738521 24.54796831 0.4276342 21.97824592 -0.5625 19.3125 C-1.2121875 20.5190625 -1.2121875 20.5190625 -1.875 21.75 C-3.5625 24.3125 -3.5625 24.3125 -6.5625 25.3125 C-7.5525 24.9825 -8.5425 24.6525 -9.5625 24.3125 C-9.9206841 18.50534505 -8.78308458 14.30061179 -6.625 8.9375 C-6.34720703 8.21433594 -6.06941406 7.49117188 -5.78320312 6.74609375 C-3.31425838 0.40417785 -3.31425838 0.40417785 0 0 Z M2.4375 9.3125 C2.1075 10.3025 1.7775 11.2925 1.4375 12.3125 C3.0875 12.3125 4.7375 12.3125 6.4375 12.3125 C5.45899805 11.29145449 4.45769573 10.2918879 3.4375 9.3125 C3.1075 9.3125 2.7775 9.3125 2.4375 9.3125 Z M90.4375 75.3125 C89.7775 75.9725 89.1175 76.6325 88.4375 77.3125 C90.9125 78.3025 90.9125 78.3025 93.4375 79.3125 C92.7775 77.9925 92.1175 76.6725 91.4375 75.3125 C91.1075 75.3125 90.7775 75.3125 90.4375 75.3125 Z M89.4375 89.3125 C89.4375 89.9725 89.4375 90.6325 89.4375 91.3125 C91.0875 90.9825 92.7375 90.6525 94.4375 90.3125 C94.4375 89.9825 94.4375 89.6525 94.4375 89.3125 C92.7875 89.3125 91.1375 89.3125 89.4375 89.3125 Z M104.4375 98.3125 C105.4375 100.3125 105.4375 100.3125 105.4375 100.3125 Z " fill="#353535" transform="translate(279.5625,98.6875)"/>
<path d="M0 0 C3.17816045 1.05938682 4.96321443 2.55021987 7.42578125 4.80859375 C8.21597656 5.51886719 9.00617188 6.22914063 9.8203125 6.9609375 C11.61328125 8.87109375 11.61328125 8.87109375 11.61328125 10.87109375 C12.27328125 10.87109375 12.93328125 10.87109375 13.61328125 10.87109375 C14.87660308 15.08216653 14.61770081 17.41676465 12.67578125 21.24609375 C12.00353246 22.46297799 11.32093874 23.67445405 10.61328125 24.87109375 C9.95328125 24.87109375 9.29328125 24.87109375 8.61328125 24.87109375 C8.38640625 25.48984375 8.15953125 26.10859375 7.92578125 26.74609375 C6.61328125 28.87109375 6.61328125 28.87109375 4.05078125 29.80859375 C3.24640625 30.15921875 2.44203125 30.50984375 1.61328125 30.87109375 C1.42765625 31.98484375 1.42765625 31.98484375 1.23828125 33.12109375 C0.39233223 36.84326943 -1.35522759 38.29377404 -4.28125 40.640625 C-8.42038143 43.05959791 -13.0185689 43.38874441 -17.65625 42.375 C-18.22730469 42.20871094 -18.79835938 42.04242188 -19.38671875 41.87109375 C-19.05671875 42.53109375 -18.72671875 43.19109375 -18.38671875 43.87109375 C-18.01171875 47.18359375 -18.01171875 47.18359375 -18.38671875 50.87109375 C-20.57421875 53.55859375 -20.57421875 53.55859375 -23.38671875 55.87109375 C-24.19109375 56.63421875 -24.99546875 57.39734375 -25.82421875 58.18359375 C-28.92640314 60.22649567 -30.7427305 60.20236541 -34.38671875 59.87109375 C-34.71671875 59.87109375 -35.04671875 59.87109375 -35.38671875 59.87109375 C-35.53109375 60.67546875 -35.67546875 61.47984375 -35.82421875 62.30859375 C-36.38671875 64.87109375 -36.38671875 64.87109375 -37.38671875 65.87109375 C-39.74609375 66.1953125 -39.74609375 66.1953125 -42.38671875 65.87109375 C-44.15234375 64.078125 -44.15234375 64.078125 -45.63671875 61.68359375 C-46.136875 60.90628906 -46.63703125 60.12898438 -47.15234375 59.328125 C-48.4146668 56.81546299 -48.97348652 54.6407336 -49.38671875 51.87109375 C-50.45921875 52.53109375 -51.53171875 53.19109375 -52.63671875 53.87109375 C-55.69652561 55.75405182 -56.52030515 55.87109375 -60.38671875 55.87109375 C-60.38671875 56.53109375 -60.38671875 57.19109375 -60.38671875 57.87109375 C-59.60296875 58.63421875 -58.81921875 59.39734375 -58.01171875 60.18359375 C-54.48658492 63.79265934 -53.45112757 66.16425997 -53.26171875 71.18359375 C-53.30296875 72.07046875 -53.34421875 72.95734375 -53.38671875 73.87109375 C-56.85171875 74.36609375 -56.85171875 74.36609375 -60.38671875 74.87109375 C-61.04671875 72.89109375 -61.70671875 70.91109375 -62.38671875 68.87109375 C-64.03671875 69.86109375 -65.68671875 70.85109375 -67.38671875 71.87109375 C-67.18046875 72.98484375 -66.97421875 74.09859375 -66.76171875 75.24609375 C-66.57609375 77.04046875 -66.57609375 77.04046875 -66.38671875 78.87109375 C-67.04671875 79.53109375 -67.70671875 80.19109375 -68.38671875 80.87109375 C-71.68386668 80.54137896 -73.00940265 80.24840985 -75.38671875 77.87109375 C-76.04671875 78.79921875 -76.70671875 79.72734375 -77.38671875 80.68359375 C-80.44238225 84.35559847 -83.79428898 85.78779882 -88.38671875 86.87109375 C-91.38671875 87.05859375 -91.38671875 87.05859375 -93.38671875 86.87109375 C-93.88171875 85.88109375 -93.88171875 85.88109375 -94.38671875 84.87109375 C-94.98484375 85.51046875 -95.58296875 86.14984375 -96.19921875 86.80859375 C-99.82517929 90.22735654 -103.5745344 90.20002762 -108.38671875 90.62109375 C-109.62421875 90.7396875 -110.86171875 90.85828125 -112.13671875 90.98046875 C-115.38671875 90.87109375 -115.38671875 90.87109375 -117.33203125 89.515625 C-118.38671875 87.87109375 -118.38671875 87.87109375 -118.26171875 85.80859375 C-117.38671875 83.87109375 -117.38671875 83.87109375 -114.38671875 81.87109375 C-113.39671875 81.87109375 -112.40671875 81.87109375 -111.38671875 81.87109375 C-111.53109375 81.21882813 -111.67546875 80.5665625 -111.82421875 79.89453125 C-112.82728607 75.17175595 -113.76040796 70.72905344 -113.38671875 65.87109375 C-112.38671875 64.87109375 -112.38671875 64.87109375 -109.32421875 64.80859375 C-108.35484375 64.82921875 -107.38546875 64.84984375 -106.38671875 64.87109375 C-104.35452387 68.27460713 -104.01780836 71.19438645 -103.76171875 75.12109375 C-103.68695313 76.19875 -103.6121875 77.27640625 -103.53515625 78.38671875 C-103.48617187 79.2065625 -103.4371875 80.02640625 -103.38671875 80.87109375 C-99.37662535 81.04974006 -99.37662535 81.04974006 -95.38671875 80.87109375 C-94.39671875 79.88109375 -94.39671875 79.88109375 -93.38671875 78.87109375 C-94.00546875 78.62359375 -94.62421875 78.37609375 -95.26171875 78.12109375 C-97.83184386 76.60925545 -98.26513377 75.59563064 -99.38671875 72.87109375 C-99.8359375 70.58203125 -99.8359375 70.58203125 -100.07421875 68.24609375 C-100.16058594 67.47007812 -100.24695313 66.6940625 -100.3359375 65.89453125 C-100.38671875 63.87109375 -100.38671875 63.87109375 -99.38671875 61.87109375 C-93.48004892 59.64331862 -87.67971236 58.45156084 -81.38671875 58.87109375 C-81.05671875 59.86109375 -80.72671875 60.85109375 -80.38671875 61.87109375 C-79.72671875 61.87109375 -79.06671875 61.87109375 -78.38671875 61.87109375 C-78.28359375 61.10796875 -78.18046875 60.34484375 -78.07421875 59.55859375 C-77.31077252 56.57421304 -76.68970845 55.81490157 -74.38671875 53.87109375 C-72.484375 52.921875 -72.484375 52.921875 -70.44921875 52.18359375 C-69.78019531 51.93222656 -69.11117187 51.68085938 -68.421875 51.421875 C-66.38671875 50.87109375 -66.38671875 50.87109375 -62.38671875 50.87109375 C-62.38671875 50.21109375 -62.38671875 49.55109375 -62.38671875 48.87109375 C-59.90234375 47.14453125 -59.90234375 47.14453125 -56.63671875 45.24609375 C-55.569375 44.61445313 -54.50203125 43.9828125 -53.40234375 43.33203125 C-50.38671875 41.87109375 -50.38671875 41.87109375 -46.38671875 41.87109375 C-45.72671875 40.55109375 -45.06671875 39.23109375 -44.38671875 37.87109375 C-42.13671875 37.62109375 -42.13671875 37.62109375 -39.38671875 37.87109375 C-37.07421875 39.87109375 -37.07421875 39.87109375 -35.38671875 41.87109375 C-34.39671875 41.54109375 -33.40671875 41.21109375 -32.38671875 40.87109375 C-32.88171875 40.03578125 -32.88171875 40.03578125 -33.38671875 39.18359375 C-34.5392088 36.51846051 -34.6894628 34.74716226 -34.38671875 31.87109375 C-33.72671875 31.21109375 -33.06671875 30.55109375 -32.38671875 29.87109375 C-31.39671875 29.87109375 -30.40671875 29.87109375 -29.38671875 29.87109375 C-29.05671875 28.55109375 -28.72671875 27.23109375 -28.38671875 25.87109375 C-26.171875 25.08984375 -26.171875 25.08984375 -23.38671875 24.87109375 C-21.0703125 26.77734375 -21.0703125 26.77734375 -18.82421875 29.37109375 C-16.6848688 31.95286365 -16.6848688 31.95286365 -14.38671875 33.87109375 C-12.14282525 33.7796888 -12.14282525 33.7796888 -10.38671875 32.87109375 C-11.55643742 29.82982521 -13.13410017 28.12697832 -15.51171875 25.99609375 C-18.04402562 23.5867144 -18.35291625 23.17531628 -18.76171875 19.49609375 C-18.57609375 18.19671875 -18.57609375 18.19671875 -18.38671875 16.87109375 C-17.06671875 16.54109375 -15.74671875 16.21109375 -14.38671875 15.87109375 C-14.05671875 14.22109375 -13.72671875 12.57109375 -13.38671875 10.87109375 C-9.43944287 10.69167212 -6.78866745 10.77758686 -3.38671875 12.87109375 C-3.05671875 11.55109375 -2.72671875 10.23109375 -2.38671875 8.87109375 C-3.37671875 8.21109375 -4.36671875 7.55109375 -5.38671875 6.87109375 C-5.76171875 4.37109375 -5.76171875 4.37109375 -5.38671875 1.87109375 C-2.38671875 -0.12890625 -2.38671875 -0.12890625 0 0 Z M4.61328125 14.87109375 C3.95328125 16.52109375 3.29328125 18.17109375 2.61328125 19.87109375 C3.60328125 19.21109375 4.59328125 18.55109375 5.61328125 17.87109375 C5.28328125 16.88109375 4.95328125 15.89109375 4.61328125 14.87109375 Z M-28.38671875 46.87109375 C-28.71671875 47.53109375 -29.04671875 48.19109375 -29.38671875 48.87109375 C-28.72671875 48.87109375 -28.06671875 48.87109375 -27.38671875 48.87109375 C-27.71671875 48.21109375 -28.04671875 47.55109375 -28.38671875 46.87109375 Z M-31.38671875 48.87109375 C-30.72671875 49.53109375 -30.06671875 50.19109375 -29.38671875 50.87109375 C-29.38671875 50.21109375 -29.38671875 49.55109375 -29.38671875 48.87109375 C-30.04671875 48.87109375 -30.70671875 48.87109375 -31.38671875 48.87109375 Z M-37.38671875 55.87109375 C-36.38671875 57.87109375 -36.38671875 57.87109375 -36.38671875 57.87109375 Z M-80.38671875 63.87109375 C-80.38671875 64.53109375 -80.38671875 65.19109375 -80.38671875 65.87109375 C-82.03671875 66.20109375 -83.68671875 66.53109375 -85.38671875 66.87109375 C-85.38671875 67.20109375 -85.38671875 67.53109375 -85.38671875 67.87109375 C-83.07671875 67.87109375 -80.76671875 67.87109375 -78.38671875 67.87109375 C-78.71671875 66.55109375 -79.04671875 65.23109375 -79.38671875 63.87109375 C-79.71671875 63.87109375 -80.04671875 63.87109375 -80.38671875 63.87109375 Z M-91.38671875 77.87109375 C-87.92171875 77.37609375 -87.92171875 77.37609375 -84.38671875 76.87109375 C-84.38671875 76.54109375 -84.38671875 76.21109375 -84.38671875 75.87109375 C-88.34129723 75.52285568 -88.34129723 75.52285568 -91.38671875 77.87109375 Z " fill="#444444" transform="translate(358.38671875,376.12890625)"/>
<path d="M0 0 C4.29 0 8.58 0 13 0 C16.4535669 5.23605304 18.06803348 9.65927983 18 16 C17 17 17 17 14.5 17.125 C12 17 12 17 11 16 C10.67 16.99 10.34 17.98 10 19 C11.258125 18.896875 12.51625 18.79375 13.8125 18.6875 C15.95703125 18.51171875 15.95703125 18.51171875 18 19 C21.15667221 22.81101657 21.48485013 26.34851488 21.75 31.1875 C21.82734375 32.41855469 21.9046875 33.64960938 21.984375 34.91796875 C22 38 22 38 21 40 C18.125 40.125 18.125 40.125 15 40 C14.34 39.34 13.68 38.68 13 38 C12.34 38.66 11.68 39.32 11 40 C8.375 39.625 8.375 39.625 6 39 C5.67 39.66 5.34 40.32 5 41 C5.60328125 40.98839844 6.2065625 40.97679687 6.828125 40.96484375 C7.62734375 40.95582031 8.4265625 40.94679688 9.25 40.9375 C10.03890625 40.92589844 10.8278125 40.91429687 11.640625 40.90234375 C15.38256275 41.05722528 17.36036965 41.39799496 20.125 44 C22.8426212 48.34819392 24.46687913 52.95972754 23.671875 58.13671875 C23.125 60.0625 23.125 60.0625 22 63 C22.33 63.33 22.66 63.66 23 64 C23.125 66.5 23.125 66.5 23 69 C22 70 22 70 18.62109375 70.09765625 C17.22652923 70.09098369 15.83198257 70.07902532 14.4375 70.0625 C13.72658203 70.05798828 13.01566406 70.05347656 12.28320312 70.04882812 C10.52209987 70.03700864 8.76103964 70.01907263 7 70 C6.34 71.65 5.68 73.3 5 75 C10.28 75.66 15.56 76.32 21 77 C22 82 22 82 20.5625 84.3125 C20.046875 84.869375 19.53125 85.42625 19 86 C19.66 86.66 20.32 87.32 21 88 C20.79296875 90.49609375 20.79296875 90.49609375 20.1875 93.4375 C19.99542969 94.40558594 19.80335938 95.37367188 19.60546875 96.37109375 C18.37365175 101.7195637 18.37365175 101.7195637 16.15234375 103.38671875 C15.05599609 104.03060547 15.05599609 104.03060547 13.9375 104.6875 C13.20402344 105.12449219 12.47054688 105.56148438 11.71484375 106.01171875 C11.14894531 106.33785156 10.58304687 106.66398437 10 107 C10.825 107.391875 11.65 107.78375 12.5 108.1875 C13.325 108.785625 14.15 109.38375 15 110 C15.3125 112.6875 15.3125 112.6875 15 115 C9.70365711 116.05113079 5.98399876 115.82954816 0.8125 114.3125 C-0.37730469 113.97863281 -1.56710937 113.64476562 -2.79296875 113.30078125 C-6.10153646 111.95881651 -7.82580013 110.80856741 -10 108 C-9.875 105.3125 -9.875 105.3125 -9 103 C-8.01 102.505 -8.01 102.505 -7 102 C-7 100.02 -7 98.04 -7 96 C-4.36 94.68 -1.72 93.36 1 92 C-0.22396484 91.44892578 -0.22396484 91.44892578 -1.47265625 90.88671875 C-4 89 -4 89 -4.55859375 86.14453125 C-3.98147825 70.26454657 -3.98147825 70.26454657 0.625 65 C1.40875 64.34 2.1925 63.68 3 63 C1.35 62.67 -0.3 62.34 -2 62 C-2.04898437 60.93265625 -2.09796875 59.8653125 -2.1484375 58.765625 C-2.61627102 49.26235242 -3.33829155 39.83000198 -4.42724609 30.37597656 C-5.10506864 24.21013727 -5.10506864 24.21013727 -4 22 C-4.99 21.67 -5.98 21.34 -7 21 C-7.984375 18.234375 -7.984375 18.234375 -8.75 14.75 C-9.14445312 13.04070312 -9.14445312 13.04070312 -9.546875 11.296875 C-9.98045522 8.14220509 -9.84561678 6.0396495 -9 3 C-7.1875 2.375 -7.1875 2.375 -5 2 C-4.01 2.66 -3.02 3.32 -2 4 C-1.34 2.68 -0.68 1.36 0 0 Z M-1 8 C0 10 0 10 0 10 Z M8 8 C8 9.65 8 11.3 8 13 C8.33 13 8.66 13 9 13 C9 11.35 9 9.7 9 8 C8.67 8 8.34 8 8 8 Z M0 11 C1 13 1 13 1 13 Z M9 13 C10 15 10 15 10 15 Z M6 49 C4.99503148 52.01490557 4.89664697 54.04181692 4.9375 57.1875 C4.958125 58.775625 4.97875 60.36375 5 62 C9.29 62 13.58 62 18 62 C17.34 61.34 16.68 60.68 16 60 C15.66020252 57.6945386 15.55849274 55.42037177 15.44140625 53.09375 C15.17277038 50.60982179 15.17277038 50.60982179 12 49 C8.87478167 48.83300768 8.87478167 48.83300768 6 49 Z M10 93 C9.67 94.65 9.34 96.3 9 98 C10.54166642 96.62514468 10.54166642 96.62514468 12 95 C12 94.34 12 93.68 12 93 C11.34 93 10.68 93 10 93 Z M-1 102 C-1.66 102.66 -2.32 103.32 -3 104 C-0.525 104.495 -0.525 104.495 2 105 C1.67 104.01 1.34 103.02 1 102 C0.34 102 -0.32 102 -1 102 Z " fill="#3A3A3A" transform="translate(389,222)"/>
<path d="M0 0 C2.671875 0.38671875 2.671875 0.38671875 4.65625 2.6171875 C5.53023437 4.08091797 5.53023437 4.08091797 6.421875 5.57421875 C7.01484375 6.53714844 7.6078125 7.50007813 8.21875 8.4921875 C9.57906978 11.20185674 10.25717766 13.40198923 10.671875 16.38671875 C11.661875 16.38671875 12.651875 16.38671875 13.671875 16.38671875 C15.93359375 18.58203125 15.93359375 18.58203125 18.359375 21.51171875 C19.57173828 22.93871094 19.57173828 22.93871094 20.80859375 24.39453125 C22.95445186 27.84050046 23.45744777 29.4107586 22.671875 33.38671875 C20.5546875 35.72265625 20.5546875 35.72265625 17.796875 37.76171875 C16.89195313 38.45007813 15.98703125 39.1384375 15.0546875 39.84765625 C12.671875 41.38671875 12.671875 41.38671875 10.671875 41.38671875 C10.671875 42.04671875 10.671875 42.70671875 10.671875 43.38671875 C11.62707031 43.24234375 12.58226563 43.09796875 13.56640625 42.94921875 C31.61014783 40.35869154 31.61014783 40.35869154 36.671875 41.38671875 C38.05732346 42.66581536 39.38325172 44.01012672 40.671875 45.38671875 C43.46813507 47.35673348 46.29160612 49.2547632 49.15820312 51.11914062 C53.56613105 54.06948691 53.56613105 54.06948691 54.671875 57.38671875 C55.53167969 57.48339844 56.39148438 57.58007812 57.27734375 57.6796875 C61.03809009 58.462996 63.67064703 59.7720569 66.984375 61.69921875 C68.03238281 62.29347656 69.08039063 62.88773437 70.16015625 63.5 C72.671875 65.38671875 72.671875 65.38671875 73.69140625 67.25390625 C73.6237887 74.63774258 67.05100275 82.71961225 62.671875 88.38671875 C52.9734623 85.65126901 52.9734623 85.65126901 49.671875 81.38671875 C48.38740581 78.81778037 48.34210356 76.62095538 48.109375 73.76171875 C48.02558594 72.75882812 47.94179687 71.7559375 47.85546875 70.72265625 C47.79488281 69.95179688 47.73429687 69.1809375 47.671875 68.38671875 C47.38054687 68.89203125 47.08921875 69.39734375 46.7890625 69.91796875 C45.5247778 71.92174072 44.32328418 73.68410308 42.671875 75.38671875 C39.359375 75.82421875 39.359375 75.82421875 36.671875 75.38671875 C36.671875 74.72671875 36.671875 74.06671875 36.671875 73.38671875 C35.90875 73.09796875 35.145625 72.80921875 34.359375 72.51171875 C31.671875 71.38671875 31.671875 71.38671875 28.671875 69.38671875 C28.671875 68.72671875 28.671875 68.06671875 28.671875 67.38671875 C27.681875 67.05671875 26.691875 66.72671875 25.671875 66.38671875 C25.671875 65.06671875 25.671875 63.74671875 25.671875 62.38671875 C24.7025 62.40734375 23.733125 62.42796875 22.734375 62.44921875 C19.671875 62.38671875 19.671875 62.38671875 18.671875 61.38671875 C18.21019639 58.69359353 18.24490291 57.02269816 19.7890625 54.72265625 C21.03594073 53.23626468 22.35045169 51.80724881 23.671875 50.38671875 C22.681875 50.71671875 21.691875 51.04671875 20.671875 51.38671875 C18.44369059 51.45608937 16.21352976 51.47128959 13.984375 51.44921875 C12.21513672 51.43568359 12.21513672 51.43568359 10.41015625 51.421875 C9.50652344 51.41027344 8.60289063 51.39867187 7.671875 51.38671875 C7.671875 49.40671875 7.671875 47.42671875 7.671875 45.38671875 C6.021875 45.38671875 4.371875 45.38671875 2.671875 45.38671875 C2.671875 44.72671875 2.671875 44.06671875 2.671875 43.38671875 C2.011875 43.38671875 1.351875 43.38671875 0.671875 43.38671875 C-2.47117732 40.31335717 -6.07239362 36.73944741 -6.5625 32.23046875 C-6.265625 30.32421875 -6.265625 30.32421875 -5.328125 27.38671875 C-7.308125 27.38671875 -9.288125 27.38671875 -11.328125 27.38671875 C-11.658125 25.40671875 -11.988125 23.42671875 -12.328125 21.38671875 C-10.7072037 20.2143919 -9.08125667 19.04901105 -7.453125 17.88671875 C-6.54820313 17.23703125 -5.64328125 16.58734375 -4.7109375 15.91796875 C-2.328125 14.38671875 -2.328125 14.38671875 -0.328125 14.38671875 C-0.328125 13.06671875 -0.328125 11.74671875 -0.328125 10.38671875 C-0.988125 10.38671875 -1.648125 10.38671875 -2.328125 10.38671875 C-3.91350818 7.86875722 -4.3654906 6.70806289 -4.015625 3.69921875 C-3.06733217 0.50950652 -3.06733217 0.50950652 0 0 Z M5.671875 19.38671875 C2.041875 21.69671875 -1.588125 24.00671875 -5.328125 26.38671875 C-4.008125 26.71671875 -2.688125 27.04671875 -1.328125 27.38671875 C-0.668125 27.71671875 -0.008125 28.04671875 0.671875 28.38671875 C0.89875 27.74734375 1.125625 27.10796875 1.359375 26.44921875 C2.671875 24.38671875 2.671875 24.38671875 5.296875 23.63671875 C6.4725 23.51296875 6.4725 23.51296875 7.671875 23.38671875 C7.011875 22.06671875 6.351875 20.74671875 5.671875 19.38671875 Z M34.671875 51.38671875 C34.341875 52.04671875 34.011875 52.70671875 33.671875 53.38671875 C34.661875 53.05671875 35.651875 52.72671875 36.671875 52.38671875 C36.011875 52.05671875 35.351875 51.72671875 34.671875 51.38671875 Z M31.671875 54.38671875 C32.671875 56.38671875 32.671875 56.38671875 32.671875 56.38671875 Z M29.671875 56.38671875 C29.341875 57.37671875 29.011875 58.36671875 28.671875 59.38671875 C29.661875 59.38671875 30.651875 59.38671875 31.671875 59.38671875 C31.671875 58.39671875 31.671875 57.40671875 31.671875 56.38671875 C31.011875 56.38671875 30.351875 56.38671875 29.671875 56.38671875 Z M56.671875 67.38671875 C56.671875 70.68671875 56.671875 73.98671875 56.671875 77.38671875 C57.661875 77.71671875 58.651875 78.04671875 59.671875 78.38671875 C62.77169615 74.63538989 62.77169615 74.63538989 63.484375 70.07421875 C62.79034889 68.39507583 62.79034889 68.39507583 61.671875 67.38671875 C60.021875 67.38671875 58.371875 67.38671875 56.671875 67.38671875 Z " fill="#2F2F2F" transform="translate(80.328125,360.61328125)"/>
<path d="M0 0 C3 0.125 3 0.125 4 1.125 C4.04063832 2.79117115 4.042721 4.45888095 4 6.125 C4.556875 5.856875 5.11375 5.58875 5.6875 5.3125 C6.450625 5.250625 7.21375 5.18875 8 5.125 C10.5625 7.3125 10.5625 7.3125 13 10.125 C13.598125 10.785 14.19625 11.445 14.8125 12.125 C16.28497775 14.60496253 16.23631935 16.28916781 16 19.125 C13.69 19.455 11.38 19.785 9 20.125 C8.01 18.64 8.01 18.64 7 17.125 C6.01 17.125 5.02 17.125 4 17.125 C4.08378906 17.83527344 4.16757813 18.54554688 4.25390625 19.27734375 C4.40666016 20.65599609 4.40666016 20.65599609 4.5625 22.0625 C4.71912109 23.43728516 4.71912109 23.43728516 4.87890625 24.83984375 C4.93884766 25.97099609 4.93884766 25.97099609 5 27.125 C4 28.125 4 28.125 1.4375 28.1875 C0.633125 28.166875 -0.17125 28.14625 -1 28.125 C-1.495 30.6 -1.495 30.6 -2 33.125 C-5.96 33.125 -9.92 33.125 -14 33.125 C-13.01 34.115 -12.02 35.105 -11 36.125 C-10.8125 38.8125 -10.8125 38.8125 -11 41.125 C-11.66 41.125 -12.32 41.125 -13 41.125 C-13 41.785 -13 42.445 -13 43.125 C-14.32 43.125 -15.64 43.125 -17 43.125 C-17 42.465 -17 41.805 -17 41.125 C-17.66 41.125 -18.32 41.125 -19 41.125 C-19.33 40.795 -19.66 40.465 -20 40.125 C-19.94779297 41.12080078 -19.94779297 41.12080078 -19.89453125 42.13671875 C-19.61064821 51.39671303 -19.61064821 51.39671303 -23 55.125 C-27.41426281 58.03440049 -30.77028126 58.43878312 -36 58.125 C-35.67 58.99125 -35.34 59.8575 -35 60.75 C-33.50040573 65.81113066 -33.30839652 68.76958067 -35.75 73.5546875 C-36.48640233 74.71189116 -37.23677003 75.86031201 -38 77 C-38.3815625 77.59296875 -38.763125 78.1859375 -39.15625 78.796875 C-40.09209875 80.24744056 -41.04441631 81.68735847 -42 83.125 C-47.0893301 82.61683693 -50.38924851 80.97572046 -54.6875 78.25 C-56.36392578 77.20199219 -56.36392578 77.20199219 -58.07421875 76.1328125 C-62.31446957 73.22294745 -62.31446957 73.22294745 -64 71.125 C-63.9375 69.0625 -63.9375 69.0625 -63 67.125 C-60.9375 65.875 -60.9375 65.875 -59 65.125 C-59.103125 64.361875 -59.20625 63.59875 -59.3125 62.8125 C-59.209375 61.925625 -59.10625 61.03875 -59 60.125 C-57.33333333 59.125 -55.66666667 58.125 -54 57.125 C-53.7499227 54.58309998 -53.7499227 54.58309998 -54 52.125 C-53.34 51.465 -52.68 50.805 -52 50.125 C-48.9375 50.5 -48.9375 50.5 -46 51.125 C-45.67 51.125 -45.34 51.125 -45 51.125 C-45.226875 49.949375 -45.45375 48.77375 -45.6875 47.5625 C-46.23673125 42.99903448 -45.38595805 40.12725222 -43 36.125 C-39.30563445 32.6108474 -36.5753333 31.89600566 -31.625 31.875 C-30.08239763 31.93870629 -28.54002456 32.01543304 -27 32.125 C-28.0209375 31.0421875 -28.0209375 31.0421875 -29.0625 29.9375 C-31 27.125 -31 27.125 -30.75 24.3125 C-30.5025 23.590625 -30.255 22.86875 -30 22.125 C-29.01 21.795 -28.02 21.465 -27 21.125 C-26.505 19.64 -26.505 19.64 -26 18.125 C-25.34 18.125 -24.68 18.125 -24 18.125 C-24 17.465 -24 16.805 -24 16.125 C-19.34462607 15.28703269 -15.62921525 15.1088308 -11 16.125 C-11.66 15.135 -12.32 14.145 -13 13.125 C-12.625 9.4375 -12.625 9.4375 -12 6.125 C-10.35 6.125 -8.7 6.125 -7 6.125 C-7 6.785 -7 7.445 -7 8.125 C-6.34 8.125 -5.68 8.125 -5 8.125 C-4.855625 6.990625 -4.71125 5.85625 -4.5625 4.6875 C-3.84768212 0.16032009 -3.84768212 0.16032009 0 0 Z M-7 22.125 C-7.33 23.115 -7.66 24.105 -8 25.125 C-5.525 25.62 -5.525 25.62 -3 26.125 C-3.66 24.805 -4.32 23.485 -5 22.125 C-5.66 22.125 -6.32 22.125 -7 22.125 Z M-19 23.125 C-19.99 24.61 -19.99 24.61 -21 26.125 C-20.01 26.62 -20.01 26.62 -19 27.125 C-18.01 25.805 -17.02 24.485 -16 23.125 C-16.99 23.125 -17.98 23.125 -19 23.125 Z M-37 43.125 C-37.41666667 45.625 -37.41666667 45.625 -37 48.125 C-34.30486239 50.40787629 -34.30486239 50.40787629 -31.9375 49.8125 C-29.95524751 49.15360761 -29.95524751 49.15360761 -28 48.125 C-28.33 45.815 -28.66 43.505 -29 41.125 C-33.49304582 40.69996554 -33.49304582 40.69996554 -37 43.125 Z " fill="#3E3E3E" transform="translate(120,122.875)"/>
<path d="M0 0 C2.5625 0.1875 2.5625 0.1875 4.5625 2.1875 C4.25084559 4.19099261 3.91486497 6.19076516 3.5625 8.1875 C3.81 9.033125 4.0575 9.87875 4.3125 10.75 C4.43625 11.9565625 4.43625 11.9565625 4.5625 13.1875 C2.25 15.8125 2.25 15.8125 -0.4375 18.1875 C-1.0975 19.1775 -1.7575 20.1675 -2.4375 21.1875 C-0.1275 21.5175 2.1825 21.8475 4.5625 22.1875 C4.76166016 23.21037109 4.76166016 23.21037109 4.96484375 24.25390625 C5.39187251 26.34997551 5.84539031 28.44071875 6.31640625 30.52734375 C6.58324219 31.71457031 6.85007812 32.90179688 7.125 34.125 C7.39441406 35.30964844 7.66382812 36.49429688 7.94140625 37.71484375 C8.52852978 40.99756587 8.82846268 43.86538431 8.5625 47.1875 C5.9970406 49.7529594 4.08563332 49.72796087 0.5625 50.1875 C1.01625 50.909375 1.47 51.63125 1.9375 52.375 C3.41744358 54.93644081 4.53467539 57.42027989 5.5625 60.1875 C7.2640625 60.1565625 7.2640625 60.1565625 9 60.125 C12.5625 60.1875 12.5625 60.1875 13.5625 61.1875 C13.60342937 63.52047433 13.60491723 65.85455225 13.5625 68.1875 C11.0875 68.6825 11.0875 68.6825 8.5625 69.1875 C9.42875 69.414375 10.295 69.64125 11.1875 69.875 C15.24939136 71.45462442 17.41613024 73.18747302 20.5625 76.1875 C21.80299993 79.90899979 22.11059207 83.32162395 21.5625 87.1875 C19.81614203 90.33094435 18.09387274 92.65612726 15.5625 95.1875 C11.25043529 96.13386464 7.00916175 96.50199169 2.6875 95.5625 C-1.31187918 92.97466641 -3.11701077 90.42367275 -4.3125 85.8125 C-4.45448217 81.69501702 -3.77713532 79.04880181 -2.4375 75.1875 C-1.7775 75.1875 -1.1175 75.1875 -0.4375 75.1875 C-0.4375 74.5275 -0.4375 73.8675 -0.4375 73.1875 C-1.18 73.373125 -1.9225 73.55875 -2.6875 73.75 C-5.42799743 74.18598823 -6.8743015 74.15974771 -9.4375 73.1875 C-11.62346362 71.00153638 -11.85981831 70.11404486 -12.5 67.1875 C-12.99205208 64.97529893 -13.42075137 63.22099727 -14.4375 61.1875 C-14.6875 58.1875 -14.6875 58.1875 -14.4375 55.1875 C-13.4475 54.5275 -12.4575 53.8675 -11.4375 53.1875 C-12.22511719 52.97609375 -13.01273438 52.7646875 -13.82421875 52.546875 C-16.4375 51.1875 -16.4375 51.1875 -17.58203125 48.578125 C-17.91267578 47.02351563 -17.91267578 47.02351563 -18.25 45.4375 C-18.48332031 44.41140625 -18.71664062 43.3853125 -18.95703125 42.328125 C-19.43999087 39.17121822 -19.74215697 36.37048328 -19.4375 33.1875 C-16.4375 31.1875 -16.4375 31.1875 -14.4375 31.5625 C-13.4475 31.871875 -13.4475 31.871875 -12.4375 32.1875 C-9.4789693 32.29226454 -9.4789693 32.29226454 -6.8125 31.625 C-6.02875 31.480625 -5.245 31.33625 -4.4375 31.1875 C-4.1075 31.5175 -3.7775 31.8475 -3.4375 32.1875 C-3.1075 31.5275 -2.7775 30.8675 -2.4375 30.1875 C-3.65308594 30.19910156 -4.86867188 30.21070313 -6.12109375 30.22265625 C-7.70572764 30.23203278 -9.29036318 30.24113313 -10.875 30.25 C-11.67744141 30.25837891 -12.47988281 30.26675781 -13.30664062 30.27539062 C-15.35045221 30.2840143 -17.39433902 30.2397815 -19.4375 30.1875 C-21.95025478 27.67474522 -21.34574239 21.94928336 -21.57421875 18.59375 C-21.4375 15.1875 -21.4375 15.1875 -19.125 11.9375 C-18.238125 11.36 -17.35125 10.7825 -16.4375 10.1875 C-15.7775 9.5275 -15.1175 8.8675 -14.4375 8.1875 C-12.5625 7.921875 -12.5625 7.921875 -10.4375 7.9375 C-9.73625 7.93234375 -9.035 7.9271875 -8.3125 7.921875 C-6.4375 8.1875 -6.4375 8.1875 -4.4375 10.1875 C-3.27279804 7.22044039 -3.27279804 7.22044039 -3.4375 4.0625 C-3.4375 0.26442308 -3.4375 0.26442308 0 0 Z M-13.4375 17.1875 C-13.4375 18.8375 -13.4375 20.4875 -13.4375 22.1875 C-12.1175 21.8575 -10.7975 21.5275 -9.4375 21.1875 C-10.0975 21.1875 -10.7575 21.1875 -11.4375 21.1875 C-11.4375 19.8675 -11.4375 18.5475 -11.4375 17.1875 C-12.0975 17.1875 -12.7575 17.1875 -13.4375 17.1875 Z M-10.4375 36.1875 C-10.4375 38.1675 -10.4375 40.1475 -10.4375 42.1875 C-9.4475 42.6825 -9.4475 42.6825 -8.4375 43.1875 C-8.7675 40.8775 -9.0975 38.5675 -9.4375 36.1875 C-9.7675 36.1875 -10.0975 36.1875 -10.4375 36.1875 Z M-1.4375 38.1875 C-0.4375 41.1875 -0.4375 41.1875 -0.4375 41.1875 Z M-5.4375 60.1875 C-5.1075 61.5075 -4.7775 62.8275 -4.4375 64.1875 C-3.7775 63.8575 -3.1175 63.5275 -2.4375 63.1875 C-2.7675 62.1975 -3.0975 61.2075 -3.4375 60.1875 C-4.0975 60.1875 -4.7575 60.1875 -5.4375 60.1875 Z M7.5625 78.1875 C5.87568262 79.28791919 5.87568262 79.28791919 4.5625 81.1875 C4.79533149 84.33671909 4.79533149 84.33671909 5.5625 87.1875 C7.40975052 87.87909401 7.40975052 87.87909401 9.5625 88.1875 C10.5525 87.5275 11.5425 86.8675 12.5625 86.1875 C12.8127157 83.10384129 12.8127157 83.10384129 12.5625 80.1875 C10.0875 79.1975 10.0875 79.1975 7.5625 78.1875 Z " fill="#313131" transform="translate(56.4375,271.8125)"/>
<path d="M0 0 C0.6875 3.125 0.6875 3.125 1 6 C1.185625 4.824375 1.185625 4.824375 1.375 3.625 C3 1 3 1 5.078125 0.15234375 C11.00417216 -1.22009969 15.25866231 -0.91377923 21 1 C21 1.66 21 2.32 21 3 C21.99 2.34 22.98 1.68 24 1 C25.91015625 0.953125 25.91015625 0.953125 28.0625 1.25 C28.84625 1.35699219 29.63 1.46398437 30.4375 1.57421875 C34.64819567 2.27386178 38.82728027 3.10273459 43 4 C43.625 7.375 43.625 7.375 44 11 C43.34 11.66 42.68 12.32 42 13 C38.875 12.625 38.875 12.625 36 12 C35.81824219 13.35544922 35.81824219 13.35544922 35.6328125 14.73828125 C35.46523438 15.91777344 35.29765625 17.09726563 35.125 18.3125 C34.96257812 19.48425781 34.80015625 20.65601563 34.6328125 21.86328125 C34 25 34 25 32 28 C29.4375 28.25 29.4375 28.25 27 28 C25.46690622 26.46690622 25.83077343 25.06818186 25.8125 22.9375 C25.84933819 18.34009357 26.71888773 14.40382344 28 10 C27.21625 9.87625 26.4325 9.7525 25.625 9.625 C23 9 23 9 21 7 C20.278125 7.144375 19.55625 7.28875 18.8125 7.4375 C15.32568664 8.13486267 12.47788749 7.61374485 9 7 C9 7.66 9 8.32 9 9 C9.78246094 8.98839844 10.56492188 8.97679688 11.37109375 8.96484375 C12.38300781 8.95582031 13.39492187 8.94679688 14.4375 8.9375 C15.44683594 8.92589844 16.45617187 8.91429688 17.49609375 8.90234375 C20 9 20 9 21 10 C21.12621814 11.55864732 21.17581311 13.12379417 21.1875 14.6875 C21.20167969 15.53699219 21.21585937 16.38648437 21.23046875 17.26171875 C20.9654897 20.41002918 20.09409454 23.04637718 19 26 C16.54126232 25.85941524 14.08314825 25.71277001 11.625 25.5625 C10.92632812 25.52318359 10.22765625 25.48386719 9.5078125 25.44335938 C4.2265625 25.11328125 4.2265625 25.11328125 2 24 C-0.33077343 23.69208131 -2.66241896 23.49104726 -5.00390625 23.28125 C-7 23 -7 23 -8 22 C-8.04080783 20.00041636 -8.04254356 17.99954746 -8 16 C-9.65 16 -11.3 16 -13 16 C-12.95875 16.94875 -12.9175 17.8975 -12.875 18.875 C-13 22 -13 22 -15 24 C-16.99948367 24.04544281 -19.00036972 24.03845443 -21 24 C-22.010625 24.2475 -23.02125 24.495 -24.0625 24.75 C-27 25 -27 25 -29.875 23.1875 C-32 21 -32 21 -32 19 C-32.66 19.33 -33.32 19.66 -34 20 C-33.938125 20.78375 -33.87625 21.5675 -33.8125 22.375 C-33.874375 23.24125 -33.93625 24.1075 -34 25 C-37 27 -37 27 -39.625 26.75 C-40.40875 26.5025 -41.1925 26.255 -42 26 C-43.82763188 22.34473624 -43.7688384 18.08895685 -44.1875 14.0625 C-44.34895508 12.68288086 -44.34895508 12.68288086 -44.51367188 11.27539062 C-44.60583984 10.39173828 -44.69800781 9.50808594 -44.79296875 8.59765625 C-44.8808667 7.78820557 -44.96876465 6.97875488 -45.05932617 6.14477539 C-45 4 -45 4 -43 1 C-37.56588564 -0.37708209 -31.83481388 -0.99162525 -26.8125 1.8125 C-24 4 -24 4 -23 6 C-22.484375 5.05125 -21.96875 4.1025 -21.4375 3.125 C-16.70470172 -2.9426901 -6.4045662 -4.2697108 0 0 Z M-12 6 C-12.33 6.66 -12.66 7.32 -13 8 C-11.35 8 -9.7 8 -8 8 C-8 7.34 -8 6.68 -8 6 C-9.32 6 -10.64 6 -12 6 Z M-34 8 C-34.99 8.495 -34.99 8.495 -36 9 C-35.67 9.99 -35.34 10.98 -35 12 C-35 11.34 -35 10.68 -35 10 C-33.68 9.67 -32.36 9.34 -31 9 C-31.99 8.67 -32.98 8.34 -34 8 Z M1 14 C1.33 14.99 1.66 15.98 2 17 C5.63 17 9.26 17 13 17 C9.96474514 14.97649676 8.80573798 14.67875982 5.3125 14.375 C4.50425781 14.30023438 3.69601563 14.22546875 2.86328125 14.1484375 C2.24839844 14.09945312 1.63351563 14.05046875 1 14 Z M-23 14 C-23.66 14.66 -24.32 15.32 -25 16 C-23.515 16.99 -23.515 16.99 -22 18 C-22.33 16.68 -22.66 15.36 -23 14 Z " fill="#3A3A3A" transform="translate(230,92)"/>
<path d="M0 0 C5.65860838 0.03551428 10.94402482 2.38386545 16.1875 4.3125 C16.1875 4.9725 16.1875 5.6325 16.1875 6.3125 C17.22197266 6.26029297 17.22197266 6.26029297 18.27734375 6.20703125 C24.87269186 6.0170418 30.09084573 6.78351749 36.1875 9.3125 C36.6825 12.2825 36.6825 12.2825 37.1875 15.3125 C38.239375 14.1059375 38.239375 14.1059375 39.3125 12.875 C43.25695353 9.35929142 45.76436683 9.1889408 50.9453125 9.453125 C58.68053406 10.05901703 58.68053406 10.05901703 61.1875 11.3125 C61.27451039 14.91651481 61.32789388 18.52026012 61.375 22.125 C61.40013672 23.14916016 61.42527344 24.17332031 61.45117188 25.22851562 C61.46083984 26.21142578 61.47050781 27.19433594 61.48046875 28.20703125 C61.4961792 29.11300049 61.51188965 30.01896973 61.52807617 30.95239258 C61.1875 33.3125 61.1875 33.3125 59.82543945 35.15112305 C58.1875 36.3125 58.1875 36.3125 55.6875 36 C54.8625 35.773125 54.0375 35.54625 53.1875 35.3125 C50.25794176 35.27601218 50.25794176 35.27601218 47.625 35.5 C46.4184375 35.4071875 46.4184375 35.4071875 45.1875 35.3125 C44.5275 34.3225 43.8675 33.3325 43.1875 32.3125 C42.6925 33.3025 42.6925 33.3025 42.1875 34.3125 C38.8125 34.5 38.8125 34.5 35.1875 34.3125 C34.5275 33.3225 33.8675 32.3325 33.1875 31.3125 C32.5275 32.3025 31.8675 33.2925 31.1875 34.3125 C29.18605726 33.98794172 27.18657671 33.65132656 25.1875 33.3125 C24.28257812 33.20164062 23.37765625 33.09078125 22.4453125 32.9765625 C14.66243115 31.88241738 14.66243115 31.88241738 12 28.6875 C11.731875 27.90375 11.46375 27.12 11.1875 26.3125 C10.1975 27.3025 9.2075 28.2925 8.1875 29.3125 C-1.93928629 27.16492291 -1.93928629 27.16492291 -5.4375 23.75 C-8.02121596 19.16977625 -8.3249634 15.59226577 -7.5 10.3125 C-4.11213899 0.45690433 -4.11213899 0.45690433 0 0 Z M1.1875 8.3125 C2.6725 9.3025 2.6725 9.3025 4.1875 10.3125 C5.1775 9.9825 6.1675 9.6525 7.1875 9.3125 C4.2175 8.8175 4.2175 8.8175 1.1875 8.3125 Z M16.1875 12.3125 C13.98213821 16.3396824 12.73089792 19.74795749 12.1875 24.3125 C13.8375 23.6525 15.4875 22.9925 17.1875 22.3125 C16.98125 21.57 16.775 20.8275 16.5625 20.0625 C16.14341249 16.98919159 16.56800989 15.88463134 18.1875 13.3125 C17.5275 12.9825 16.8675 12.6525 16.1875 12.3125 Z M0.1875 16.3125 C1.1775 17.3025 2.1675 18.2925 3.1875 19.3125 C3.5175 18.6525 3.8475 17.9925 4.1875 17.3125 C2.8675 16.9825 1.5475 16.6525 0.1875 16.3125 Z M52.1875 21.3125 C53.1875 24.3125 53.1875 24.3125 53.1875 24.3125 Z M22.1875 23.3125 C26.1875 24.3125 26.1875 24.3125 26.1875 24.3125 Z " fill="#373737" transform="translate(163.8125,431.6875)"/>
<path d="M0 0 C3.17816045 1.05938682 4.96321443 2.55021987 7.42578125 4.80859375 C8.21597656 5.51886719 9.00617188 6.22914063 9.8203125 6.9609375 C11.61328125 8.87109375 11.61328125 8.87109375 11.61328125 10.87109375 C12.27328125 10.87109375 12.93328125 10.87109375 13.61328125 10.87109375 C14.87660308 15.08216653 14.61770081 17.41676465 12.67578125 21.24609375 C12.00353246 22.46297799 11.32093874 23.67445405 10.61328125 24.87109375 C9.95328125 24.87109375 9.29328125 24.87109375 8.61328125 24.87109375 C8.38640625 25.48984375 8.15953125 26.10859375 7.92578125 26.74609375 C6.61328125 28.87109375 6.61328125 28.87109375 4.05078125 29.80859375 C3.24640625 30.15921875 2.44203125 30.50984375 1.61328125 30.87109375 C1.42765625 31.98484375 1.42765625 31.98484375 1.23828125 33.12109375 C0.39233223 36.84326943 -1.35522759 38.29377404 -4.28125 40.640625 C-8.42038143 43.05959791 -13.0185689 43.38874441 -17.65625 42.375 C-18.51283203 42.12556641 -18.51283203 42.12556641 -19.38671875 41.87109375 C-19.05671875 42.53109375 -18.72671875 43.19109375 -18.38671875 43.87109375 C-18.01171875 47.18359375 -18.01171875 47.18359375 -18.38671875 50.87109375 C-20.57421875 53.55859375 -20.57421875 53.55859375 -23.38671875 55.87109375 C-24.19109375 56.63421875 -24.99546875 57.39734375 -25.82421875 58.18359375 C-28.99139379 60.26929438 -30.6654723 60.51826705 -34.38671875 59.87109375 C-37.26332602 56.57297848 -39.15494424 52.73566776 -41.203125 48.89453125 C-42.34846947 46.74045428 -42.34846947 46.74045428 -44.38671875 44.87109375 C-44.51171875 42.24609375 -44.51171875 42.24609375 -44.38671875 39.87109375 C-42.69921875 39.18359375 -42.69921875 39.18359375 -40.38671875 38.87109375 C-38.70932013 39.85298562 -37.04204498 40.85243146 -35.38671875 41.87109375 C-33.90171875 41.37609375 -33.90171875 41.37609375 -32.38671875 40.87109375 C-32.71671875 40.31421875 -33.04671875 39.75734375 -33.38671875 39.18359375 C-34.5392088 36.51846051 -34.6894628 34.74716226 -34.38671875 31.87109375 C-33.72671875 31.21109375 -33.06671875 30.55109375 -32.38671875 29.87109375 C-31.39671875 29.87109375 -30.40671875 29.87109375 -29.38671875 29.87109375 C-29.05671875 28.55109375 -28.72671875 27.23109375 -28.38671875 25.87109375 C-26.171875 25.08984375 -26.171875 25.08984375 -23.38671875 24.87109375 C-21.0703125 26.77734375 -21.0703125 26.77734375 -18.82421875 29.37109375 C-16.6848688 31.95286365 -16.6848688 31.95286365 -14.38671875 33.87109375 C-12.14282525 33.7796888 -12.14282525 33.7796888 -10.38671875 32.87109375 C-11.55643742 29.82982521 -13.13410017 28.12697832 -15.51171875 25.99609375 C-18.04402562 23.5867144 -18.35291625 23.17531628 -18.76171875 19.49609375 C-18.63796875 18.62984375 -18.51421875 17.76359375 -18.38671875 16.87109375 C-17.06671875 16.54109375 -15.74671875 16.21109375 -14.38671875 15.87109375 C-14.05671875 14.22109375 -13.72671875 12.57109375 -13.38671875 10.87109375 C-9.43944287 10.69167212 -6.78866745 10.77758686 -3.38671875 12.87109375 C-3.05671875 11.55109375 -2.72671875 10.23109375 -2.38671875 8.87109375 C-3.37671875 8.21109375 -4.36671875 7.55109375 -5.38671875 6.87109375 C-5.76171875 4.37109375 -5.76171875 4.37109375 -5.38671875 1.87109375 C-2.38671875 -0.12890625 -2.38671875 -0.12890625 0 0 Z M4.61328125 14.87109375 C3.95328125 16.52109375 3.29328125 18.17109375 2.61328125 19.87109375 C3.60328125 19.21109375 4.59328125 18.55109375 5.61328125 17.87109375 C5.28328125 16.88109375 4.95328125 15.89109375 4.61328125 14.87109375 Z M-28.38671875 46.87109375 C-28.71671875 47.53109375 -29.04671875 48.19109375 -29.38671875 48.87109375 C-28.72671875 48.87109375 -28.06671875 48.87109375 -27.38671875 48.87109375 C-27.71671875 48.21109375 -28.04671875 47.55109375 -28.38671875 46.87109375 Z M-31.38671875 48.87109375 C-30.72671875 49.53109375 -30.06671875 50.19109375 -29.38671875 50.87109375 C-29.38671875 50.21109375 -29.38671875 49.55109375 -29.38671875 48.87109375 C-30.04671875 48.87109375 -30.70671875 48.87109375 -31.38671875 48.87109375 Z " fill="#323232" transform="translate(358.38671875,376.12890625)"/>
<path d="M0 0 C2.5625 0.1875 2.5625 0.1875 4.5625 2.1875 C4.1875 5.8125 4.1875 5.8125 3.5625 9.1875 C4.23796875 9.36925781 4.9134375 9.55101562 5.609375 9.73828125 C6.94742188 10.11533203 6.94742188 10.11533203 8.3125 10.5 C9.19421875 10.74363281 10.0759375 10.98726562 10.984375 11.23828125 C13.62022505 12.20875331 15.41657326 13.39755644 17.5625 15.1875 C16.6875 20.0625 16.6875 20.0625 15.5625 21.1875 C9.5111838 20.75526313 4.24040538 19.27728462 -1.4375 17.1875 C-1.4375 18.1775 -1.4375 19.1675 -1.4375 20.1875 C-2.4275 20.8475 -3.4175 21.5075 -4.4375 22.1875 C-4.1075 23.5075 -3.7775 24.8275 -3.4375 26.1875 C-3.1075 25.8575 -2.7775 25.5275 -2.4375 25.1875 C0 25 0 25 2.5625 25.1875 C3.2225 25.8475 3.8825 26.5075 4.5625 27.1875 C4.8925 26.8575 5.2225 26.5275 5.5625 26.1875 C8 26 8 26 10.5625 26.1875 C11.2225 26.8475 11.8825 27.5075 12.5625 28.1875 C12.2735094 33.62878025 11.23149402 39.16382633 8.9375 44.125 C7.3705045 47.0556243 7.3705045 47.0556243 7.5625 50 C7.5625 50.721875 7.5625 51.44375 7.5625 52.1875 C3.82284036 54.68060643 2.27179359 54.2478261 -2.125 53.8125 C-3.30449219 53.70164063 -4.48398437 53.59078125 -5.69921875 53.4765625 C-6.60285156 53.38117188 -7.50648437 53.28578125 -8.4375 53.1875 C-9.4275 55.6625 -9.4275 55.6625 -10.4375 58.1875 C-9.19033203 58.27837891 -9.19033203 58.27837891 -7.91796875 58.37109375 C-6.83128906 58.45488281 -5.74460937 58.53867188 -4.625 58.625 C-3.54605469 58.70621094 -2.46710937 58.78742188 -1.35546875 58.87109375 C1.5625 59.1875 1.5625 59.1875 4.5625 60.1875 C5.1875 62.5 5.1875 62.5 5.5625 65.1875 C4.9025 66.1775 4.2425 67.1675 3.5625 68.1875 C-3.32052674 68.95228075 -13.25294004 68.59280385 -18.83203125 64.37890625 C-20.69261261 61.83928059 -20.87345629 60.9430424 -20.4375 57.875 C-19.65577688 53.17692145 -18.27599383 50.02330247 -15.4375 46.1875 C-12.1875 44.25 -12.1875 44.25 -9.4375 43.1875 C-11.4175 42.5275 -13.3975 41.8675 -15.4375 41.1875 C-16.46625484 37.32794325 -16.35960264 34.91072467 -15.125 31.125 C-14.72861328 29.87009766 -14.72861328 29.87009766 -14.32421875 28.58984375 C-13.08068733 25.22080487 -11.99199792 22.74199792 -9.4375 20.1875 C-9.16200167 18.31782641 -9.16200167 18.31782641 -9.125 16.1875 C-8.67093595 10.91007629 -6.19482552 0.47652504 0 0 Z M-5.4375 28.1875 C-4.4375 30.1875 -4.4375 30.1875 -4.4375 30.1875 Z " fill="#393939" transform="translate(56.4375,196.8125)"/>
<path d="M0 0 C0.33 0 0.66 0 1 0 C1.33 2.64 1.66 5.28 2 8 C4.475 8.495 4.475 8.495 7 9 C7.19412181 10.47831221 7.38012131 11.95769316 7.5625 13.4375 C7.71912109 14.67306641 7.71912109 14.67306641 7.87890625 15.93359375 C7.93884766 16.95646484 7.93884766 16.95646484 8 18 C7 19 7 19 3.62109375 19.09765625 C2.22652923 19.09098369 0.83198257 19.07902532 -0.5625 19.0625 C-1.27341797 19.05798828 -1.98433594 19.05347656 -2.71679688 19.04882812 C-4.47790013 19.03700864 -6.23896036 19.01907263 -8 19 C-8.99 21.475 -8.99 21.475 -10 24 C-4.72 24.66 0.56 25.32 6 26 C7 31 7 31 5.5625 33.3125 C5.046875 33.869375 4.53125 34.42625 4 35 C4.66 35.66 5.32 36.32 6 37 C5.79296875 39.49609375 5.79296875 39.49609375 5.1875 42.4375 C4.89939453 43.88962891 4.89939453 43.88962891 4.60546875 45.37109375 C3.37365175 50.7195637 3.37365175 50.7195637 1.15234375 52.38671875 C0.42144531 52.81597656 -0.30945313 53.24523437 -1.0625 53.6875 C-1.79597656 54.12449219 -2.52945312 54.56148438 -3.28515625 55.01171875 C-4.13400391 55.50091797 -4.13400391 55.50091797 -5 56 C-4.175 56.391875 -3.35 56.78375 -2.5 57.1875 C-1.675 57.785625 -0.85 58.38375 0 59 C0.3125 61.6875 0.3125 61.6875 0 64 C-5.29634289 65.05113079 -9.01600124 64.82954816 -14.1875 63.3125 C-15.37730469 62.97863281 -16.56710937 62.64476562 -17.79296875 62.30078125 C-21.10153646 60.95881651 -22.82580013 59.80856741 -25 57 C-24.875 54.3125 -24.875 54.3125 -24 52 C-23.01 51.505 -23.01 51.505 -22 51 C-22 49.02 -22 47.04 -22 45 C-19.36 43.68 -16.72 42.36 -14 41 C-14.81597656 40.63261719 -15.63195312 40.26523437 -16.47265625 39.88671875 C-19 38 -19 38 -19.55859375 35.14453125 C-18.92614585 17.7420133 -18.92614585 17.7420133 -13.0625 11.27734375 C-8.83836519 8.66126026 -3.76844862 9.51389601 1 10 C0.67 9.67 0.34 9.34 0 9 C-0.07179964 7.48071962 -0.08392007 5.95832518 -0.0625 4.4375 C-0.05347656 3.61121094 -0.04445313 2.78492188 -0.03515625 1.93359375 C-0.02355469 1.29550781 -0.01195312 0.65742188 0 0 Z M-5 42 C-5.33 43.65 -5.66 45.3 -6 47 C-4.45833358 45.62514468 -4.45833358 45.62514468 -3 44 C-3 43.34 -3 42.68 -3 42 C-3.66 42 -4.32 42 -5 42 Z M-16 51 C-16.66 51.66 -17.32 52.32 -18 53 C-15.525 53.495 -15.525 53.495 -13 54 C-13.33 53.01 -13.66 52.02 -14 51 C-14.66 51 -15.32 51 -16 51 Z " fill="#282828" transform="translate(404,273)"/>
<path d="M0 0 C1 1 1 1 1.1875 3.375 C1 6 1 6 -1 9 C-0.01 9.33 0.98 9.66 2 10 C2 11.65 2 13.3 2 15 C-0.97 16.32 -3.94 17.64 -7 19 C-6.773125 19.928125 -6.54625 20.85625 -6.3125 21.8125 C-6 25 -6 25 -7.125 26.8125 C-9.38844094 28.24601259 -11.37132939 28.58494675 -14 29 C-14.495 29.495 -14.495 29.495 -15 30 C-17.375 30.3125 -17.375 30.3125 -20 30 C-22.42659674 27.6667339 -23.18916332 25.49269837 -24.375 22.3125 C-25.179375 20.6728125 -25.179375 20.6728125 -26 19 C-28.54417124 18.24183378 -28.54417124 18.24183378 -31 18 C-30.71125 18.72445312 -30.4225 19.44890625 -30.125 20.1953125 C-26.43760984 29.79789104 -26.43760984 29.79789104 -27 35 C-27.928125 35.268125 -28.85625 35.53625 -29.8125 35.8125 C-32.97401341 36.71783013 -32.97401341 36.71783013 -34.5625 38.6875 C-36 40 -36 40 -38.28515625 40.09765625 C-42.61719993 38.34613931 -43.84533053 34.78930931 -45.875 30.75 C-46.29007813 29.98558594 -46.70515625 29.22117187 -47.1328125 28.43359375 C-50.04854289 22.8062341 -50.04854289 22.8062341 -49.8203125 19.015625 C-49 17 -49 17 -48 16 C-47.2575 16.0825 -46.515 16.165 -45.75 16.25 C-41.83859813 15.89441801 -40.6513725 13.78394113 -38 11 C-33.90121758 8.67366403 -29.62351534 8.37812367 -25 9 C-21.5 10.5 -21.5 10.5 -19 12 C-19.33 9.69 -19.66 7.38 -20 5 C-19.34 5 -18.68 5 -18 5 C-18 4.34 -18 3.68 -18 3 C-11.8196835 0.87235006 -6.55537815 -0.47675477 0 0 Z " fill="#2D2D2D" transform="translate(183,96)"/>
<path d="M0 0 C4.45911577 0.40537416 7.75057373 1.78943787 11.4375 4.3125 C13.76625487 7.29621717 14.4375 8.52840855 14.4375 12.3125 C15.0975 12.3125 15.7575 12.3125 16.4375 12.3125 C17.0975 10.9925 17.7575 9.6725 18.4375 8.3125 C20.8125 8.125 20.8125 8.125 23.4375 8.3125 C25.4375 11.3125 25.4375 11.3125 25.25 13.125 C24.4375 15.3125 24.4375 15.3125 22.875 18.25 C21.44179721 21.30334508 21.14569388 23.005364 21.4375 26.3125 C22.4275 26.6425 23.4175 26.9725 24.4375 27.3125 C26.4175 23.3525 28.3975 19.3925 30.4375 15.3125 C32.4175 15.3125 34.3975 15.3125 36.4375 15.3125 C37.4375 16.3125 37.4375 16.3125 37.6875 19.1875 C37.4375 22.3125 37.4375 22.3125 36.08984375 23.62109375 C33.80678302 25.95812754 32.9525141 28.47746455 31.75 31.5 C31.31300781 32.58667969 30.87601562 33.67335937 30.42578125 34.79296875 C30.09964844 35.62441406 29.77351563 36.45585937 29.4375 37.3125 C24.75870251 37.6868038 21.35969989 37.75652217 17.0625 35.6875 C13.15954507 32.15625507 11.54304705 29.21234688 11.25 23.9375 C11.3428125 22.638125 11.3428125 22.638125 11.4375 21.3125 C10.7775 20.9825 10.1175 20.6525 9.4375 20.3125 C9.623125 21.611875 9.80875 22.91125 10 24.25 C10.31640625 26.46484375 10.31640625 26.46484375 10.4375 28.3125 C9.4375 29.3125 9.4375 29.3125 7.0625 29.6875 C4.4375 29.3125 4.4375 29.3125 2.75 27.125 C1.54738521 24.54796831 0.4276342 21.97824592 -0.5625 19.3125 C-1.2121875 20.5190625 -1.2121875 20.5190625 -1.875 21.75 C-3.5625 24.3125 -3.5625 24.3125 -6.5625 25.3125 C-7.5525 24.9825 -8.5425 24.6525 -9.5625 24.3125 C-9.9206841 18.50534505 -8.78308458 14.30061179 -6.625 8.9375 C-6.34720703 8.21433594 -6.06941406 7.49117188 -5.78320312 6.74609375 C-3.31425838 0.40417785 -3.31425838 0.40417785 0 0 Z M2.4375 9.3125 C2.1075 10.3025 1.7775 11.2925 1.4375 12.3125 C3.0875 12.3125 4.7375 12.3125 6.4375 12.3125 C5.45899805 11.29145449 4.45769573 10.2918879 3.4375 9.3125 C3.1075 9.3125 2.7775 9.3125 2.4375 9.3125 Z " fill="#3E3E3E" transform="translate(279.5625,98.6875)"/>
<path d="M0 0 C1.32 2.97 2.64 5.94 4 9 C5.134375 8.979375 6.26875 8.95875 7.4375 8.9375 C11 9 11 9 12 10 C12.04092937 12.33297433 12.04241723 14.66705225 12 17 C10.35 17.33 8.7 17.66 7 18 C7.86625 18.226875 8.7325 18.45375 9.625 18.6875 C13.68689136 20.26712442 15.85363024 21.99997302 19 25 C20.24049993 28.72149979 20.54809207 32.13412395 20 36 C18.25364203 39.14344435 16.53137274 41.46862726 14 44 C9.68793529 44.94636464 5.44666175 45.31449169 1.125 44.375 C-2.87437918 41.78716641 -4.67951077 39.23617275 -5.875 34.625 C-6.01698217 30.50751702 -5.33963532 27.86130181 -4 24 C-3.34 24 -2.68 24 -2 24 C-2 23.34 -2 22.68 -2 22 C-2.7425 22.185625 -3.485 22.37125 -4.25 22.5625 C-6.99049743 22.99848823 -8.4368015 22.97224771 -11 22 C-13.18596362 19.81403638 -13.42231831 18.92654486 -14.0625 16 C-14.55455208 13.78779893 -14.98325137 12.03349727 -16 10 C-16.039992 8.00039988 -16.04346799 5.99952758 -16 4 C-14.72942818 3.52014033 -13.45853152 3.0411407 -12.1875 2.5625 C-11.47980469 2.29566406 -10.77210937 2.02882813 -10.04296875 1.75390625 C-6.48700101 0.44166577 -3.78403834 -0.10227131 0 0 Z M-7 9 C-6.67 10.32 -6.34 11.64 -6 13 C-5.34 12.67 -4.68 12.34 -4 12 C-4.33 11.01 -4.66 10.02 -5 9 C-5.66 9 -6.32 9 -7 9 Z M6 27 C4.31318262 28.10041919 4.31318262 28.10041919 3 30 C3.23283149 33.14921909 3.23283149 33.14921909 4 36 C5.84725052 36.69159401 5.84725052 36.69159401 8 37 C8.99 36.34 9.98 35.68 11 35 C11.2502157 31.91634129 11.2502157 31.91634129 11 29 C8.525 28.01 8.525 28.01 6 27 Z " fill="#323232" transform="translate(58,323)"/>
<path d="M0 0 C5.13299169 0.54031491 9.09154917 2.90095606 13.5625 5.375 C13.954375 4.55 14.34625 3.725 14.75 2.875 C16.5625 0.375 16.5625 0.375 19.125 -0.0625 C21.5625 0.375 21.5625 0.375 23.5625 2.375 C23.16177819 10.18907528 20.15442421 18.00034892 14.5625 23.375 C13.76568682 26.01684541 13.76568682 26.01684541 13.5625 28.375 C10.18432575 29.21954356 7.88784757 29.48344919 4.5625 28.375 C3.9025 29.365 3.2425 30.355 2.5625 31.375 C3.8 32.2103125 3.8 32.2103125 5.0625 33.0625 C7.5625 35.375 7.5625 35.375 7.9375 38.0625 C7.5625 40.375 7.5625 40.375 6.5625 41.375 C1.28888004 42.27263744 -1.27663477 41.14737911 -5.6875 38.125 C-9.92193178 35.04780424 -13.08623814 32.57038664 -13.9375 27.25 C-13.26052482 22.00344233 -11.59385819 17.64872531 -8.4375 13.375 C-5.125 12.25 -5.125 12.25 -2.4375 12.375 C-1.7775 14.025 -1.1175 15.675 -0.4375 17.375 C0.6453125 17.0346875 0.6453125 17.0346875 1.75 16.6875 C5.31834692 16.29101701 6.70121099 17.33122213 9.5625 19.375 C9.5625 17.395 9.5625 15.415 9.5625 13.375 C8.79164063 13.02566406 8.02078125 12.67632812 7.2265625 12.31640625 C6.22367187 11.86136719 5.22078125 11.40632813 4.1875 10.9375 C3.18976563 10.48503906 2.19203125 10.03257812 1.1640625 9.56640625 C-0.38057583 8.85902684 -1.91794922 8.13477539 -3.4375 7.375 C-3.48004356 5.37545254 -3.47830783 3.37458364 -3.4375 1.375 C-2.4375 0.375 -2.4375 0.375 0 0 Z M-1.4375 18.375 C-0.4375 20.375 -0.4375 20.375 -0.4375 20.375 Z M-4.4375 23.375 C-3.4375 25.375 -3.4375 25.375 -3.4375 25.375 Z " fill="#3D3D3D" transform="translate(377.4375,338.625)"/>
<path d="M0 0 C1.125 4.75 1.125 4.75 0 7 C0.63679688 7.24363281 1.27359375 7.48726563 1.9296875 7.73828125 C4 9 4 9 4.8203125 10.91796875 C5.28705028 14.39456681 5.58030538 16.91294907 3.890625 20.078125 C1.09196118 23.51153732 -1.58553385 25.98127704 -6 27 C-8.8125 27.125 -8.8125 27.125 -11 27 C-11.33 26.34 -11.66 25.68 -12 25 C-12.598125 25.639375 -13.19625 26.27875 -13.8125 26.9375 C-17.43846054 30.35626279 -21.18781565 30.32893387 -26 30.75 C-27.2375 30.86859375 -28.475 30.9871875 -29.75 31.109375 C-33 31 -33 31 -34.9453125 29.64453125 C-36 28 -36 28 -35.875 25.9375 C-35 24 -35 24 -32 22 C-31.01 22 -30.02 22 -29 22 C-29.144375 21.34773438 -29.28875 20.69546875 -29.4375 20.0234375 C-30.44056732 15.3006622 -31.37368921 10.85795969 -31 6 C-30 5 -30 5 -26.9375 4.9375 C-25.4834375 4.9684375 -25.4834375 4.9684375 -24 5 C-21.96780512 8.40351338 -21.63108961 11.3232927 -21.375 15.25 C-21.30023438 16.32765625 -21.22546875 17.4053125 -21.1484375 18.515625 C-21.07496094 19.74539063 -21.07496094 19.74539063 -21 21 C-16.9899066 21.17864631 -16.9899066 21.17864631 -13 21 C-12.34 20.34 -11.68 19.68 -11 19 C-11.61875 18.7525 -12.2375 18.505 -12.875 18.25 C-15.44512511 16.7381617 -15.87841502 15.72453689 -17 13 C-17.44921875 10.7109375 -17.44921875 10.7109375 -17.6875 8.375 C-17.77386719 7.59898437 -17.86023438 6.82296875 -17.94921875 6.0234375 C-18 4 -18 4 -17 2 C-11.30201576 -0.18220673 -6.05106191 -0.21915315 0 0 Z M-9 18 C-5.535 17.505 -5.535 17.505 -2 17 C-2 16.67 -2 16.34 -2 16 C-5.95457848 15.65176193 -5.95457848 15.65176193 -9 18 Z " fill="#272727" transform="translate(276,436)"/>
<path d="M0 0 C0.67611328 0.05285156 1.35222656 0.10570312 2.04882812 0.16015625 C6.97608418 0.58179209 6.97608418 0.58179209 9.3125 1.75 C9.39951039 5.35401481 9.45289388 8.95776012 9.5 12.5625 C9.52513672 13.58666016 9.55027344 14.61082031 9.57617188 15.66601562 C9.58583984 16.64892578 9.59550781 17.63183594 9.60546875 18.64453125 C9.6211792 19.55050049 9.63688965 20.45646973 9.65307617 21.38989258 C9.3125 23.75 9.3125 23.75 7.95043945 25.58862305 C6.3125 26.75 6.3125 26.75 3.8125 26.4375 C2.9875 26.210625 2.1625 25.98375 1.3125 25.75 C-1.61705824 25.71351218 -1.61705824 25.71351218 -4.25 25.9375 C-5.4565625 25.8446875 -5.4565625 25.8446875 -6.6875 25.75 C-7.3475 24.76 -8.0075 23.77 -8.6875 22.75 C-9.0175 23.41 -9.3475 24.07 -9.6875 24.75 C-12.0625 24.875 -12.0625 24.875 -14.6875 24.75 C-16.6875 22.75 -16.6875 22.75 -16.953125 20.796875 C-16.92074149 16.03649903 -16.51479617 12.21672397 -14.6875 7.75 C-14.419375 6.863125 -14.15125 5.97625 -13.875 5.0625 C-10.90958603 -0.71225352 -5.79739201 -0.59604612 0 0 Z M0.3125 11.75 C1.3125 14.75 1.3125 14.75 1.3125 14.75 Z " fill="#2A2A2A" transform="translate(215.6875,441.25)"/>
<path d="M0 0 C1.98 0 3.96 0 6 0 C6.63228516 1.17369141 6.63228516 1.17369141 7.27734375 2.37109375 C7.82519531 3.38300781 8.37304688 4.39492187 8.9375 5.4375 C9.48277344 6.44683594 10.02804687 7.45617187 10.58984375 8.49609375 C11.77699468 10.86670493 11.77699468 10.86670493 13 12 C13.125 15 13.125 15 13 18 C12.67 18.33 12.34 18.66 12 19 C10.865625 18.95875 9.73125 18.9175 8.5625 18.875 C6.7990625 18.936875 6.7990625 18.936875 5 19 C4.34 19.99 3.68 20.98 3 22 C0.375 22.1875 0.375 22.1875 -2 22 C-1.50243908 24.75641416 -1.50243908 24.75641416 0 27 C0.04080783 28.99958364 0.04254356 31.00045254 0 33 C-4.75 34.125 -4.75 34.125 -7 33 C-7.2475 32.195625 -7.495 31.39125 -7.75 30.5625 C-8.90852115 27.26071472 -10.22305956 25.02255714 -12.125 22.125 C-15.07191152 17.40421941 -15.60975677 14.48781092 -15 9 C-13.25595212 7.98965502 -11.50450439 6.99207578 -9.75 6 C-8.77546875 5.443125 -7.8009375 4.88625 -6.796875 4.3125 C-4 3 -4 3 0 3 C0 2.01 0 1.02 0 0 Z M3 13 C4 15 4 15 4 15 Z " fill="#202020" transform="translate(381,184)"/>
<path d="M0 0 C-2.97417698 1.66924855 -4.36472729 2.02315729 -7.9375 2.25 C-11.25040546 2.65250253 -12.13595762 3.09913576 -15 5.1875 C-18.62414374 10.13725337 -17.51970744 17.20897424 -17 23 C-16.67 23.66 -16.34 24.32 -16 25 C-18.37978795 26.49838501 -19.65911099 27.02556668 -22.5 26.8125 C-25.20462914 25.93349553 -26.91741798 24.92831669 -29 23 C-29 22.34 -29 21.68 -29 21 C-29.66 21.33 -30.32 21.66 -31 22 C-30.938125 22.78375 -30.87625 23.5675 -30.8125 24.375 C-30.874375 25.24125 -30.93625 26.1075 -31 27 C-34 29 -34 29 -36.625 28.75 C-37.40875 28.5025 -38.1925 28.255 -39 28 C-40.82763188 24.34473624 -40.7688384 20.08895685 -41.1875 16.0625 C-41.34895508 14.68288086 -41.34895508 14.68288086 -41.51367188 13.27539062 C-41.60583984 12.39173828 -41.69800781 11.50808594 -41.79296875 10.59765625 C-41.8808667 9.78820557 -41.96876465 8.97875488 -42.05932617 8.14477539 C-42 6 -42 6 -40 3 C-34.56588564 1.62291791 -28.83481388 1.00837475 -23.8125 3.8125 C-21 6 -21 6 -20 8 C-19.484375 7.05125 -18.96875 6.1025 -18.4375 5.125 C-13.74242571 -0.89432601 -7.04879269 -0.28770582 0 0 Z M-31 10 C-31.99 10.495 -31.99 10.495 -33 11 C-32.67 11.99 -32.34 12.98 -32 14 C-32 13.34 -32 12.68 -32 12 C-30.68 11.67 -29.36 11.34 -28 11 C-28.99 10.67 -29.98 10.34 -31 10 Z M-20 16 C-20.66 16.66 -21.32 17.32 -22 18 C-20.515 18.99 -20.515 18.99 -19 20 C-19.33 18.68 -19.66 17.36 -20 16 Z " fill="#393939" transform="translate(227,90)"/>
<path d="M0 0 C5.65860838 0.03551428 10.94402482 2.38386545 16.1875 4.3125 C16.1875 4.9725 16.1875 5.6325 16.1875 6.3125 C16.8475 6.6425 17.5075 6.9725 18.1875 7.3125 C16.78862261 11.57359657 15.31674096 15.79762004 13.75 20 C13.33878906 21.11761719 12.92757812 22.23523438 12.50390625 23.38671875 C11.30980483 26.04067117 10.39952265 27.48742008 8.1875 29.3125 C-1.93928629 27.16492291 -1.93928629 27.16492291 -5.4375 23.75 C-8.02121596 19.16977625 -8.3249634 15.59226577 -7.5 10.3125 C-4.11213899 0.45690433 -4.11213899 0.45690433 0 0 Z M1.1875 8.3125 C2.6725 9.3025 2.6725 9.3025 4.1875 10.3125 C5.1775 9.9825 6.1675 9.6525 7.1875 9.3125 C4.2175 8.8175 4.2175 8.8175 1.1875 8.3125 Z M0.1875 16.3125 C1.1775 17.3025 2.1675 18.2925 3.1875 19.3125 C3.5175 18.6525 3.8475 17.9925 4.1875 17.3125 C2.8675 16.9825 1.5475 16.6525 0.1875 16.3125 Z " fill="#393939" transform="translate(163.8125,431.6875)"/>
<path d="M0 0 C3.14813928 3.06106309 5.81566452 6.81430793 6.19140625 11.26953125 C5.82516569 14.30651068 4.96507334 17.10477997 4 20 C4.66 20 5.32 20 6 20 C6 20.66 6 21.32 6 22 C4.96875 22.433125 3.9375 22.86625 2.875 23.3125 C0.41715468 24.35945237 -1.92606398 25.47176844 -4.3125 26.6875 C-7 28 -7 28 -9 28 C-9 29.98 -9 31.96 -9 34 C-10.0625 32.125 -10.0625 32.125 -11 30 C-10.67 29.34 -10.34 28.68 -10 28 C-11.32 28 -12.64 28 -14 28 C-14.16682272 23.07872966 -14.24828052 19.49656104 -12 15 C-12.99 15.66 -13.98 16.32 -15 17 C-18.1875 17.125 -18.1875 17.125 -21 17 C-21.33 15.35 -21.66 13.7 -22 12 C-22.99 12 -23.98 12 -25 12 C-24.67 11.34 -24.34 10.68 -24 10 C-23.14921875 9.82984375 -23.14921875 9.82984375 -22.28125 9.65625 C-18.99945741 8.71217268 -17.06421518 6.72607692 -14.5 4.5 C-9.55874817 0.21034182 -6.52834776 -2.16575346 0 0 Z M-5 9 C-5.66 9.66 -6.32 10.32 -7 11 C-4.525 11.99 -4.525 11.99 -2 13 C-2.66 11.68 -3.32 10.36 -4 9 C-4.33 9 -4.66 9 -5 9 Z M-6 23 C-6 23.66 -6 24.32 -6 25 C-4.35 24.67 -2.7 24.34 -1 24 C-1 23.67 -1 23.34 -1 23 C-2.65 23 -4.3 23 -6 23 Z " fill="#353535" transform="translate(375,165)"/>
<path d="M0 0 C0.66 0.99 1.32 1.98 2 3 C3.99690716 3.3513871 5.99753548 3.68180671 8 4 C11.17578125 5.48828125 11.17578125 5.48828125 14.3125 7.3125 C15.88451172 8.20388672 15.88451172 8.20388672 17.48828125 9.11328125 C20 11 20 11 21.01953125 12.8671875 C20.9519137 20.25102383 14.37912775 28.3328935 10 34 C0.3015873 31.26455026 0.3015873 31.26455026 -3 27 C-4.44007172 24.11985655 -4.50769988 21.38622657 -4.8125 18.1875 C-4.94269531 16.96417969 -5.07289062 15.74085938 -5.20703125 14.48046875 C-4.95820801 10.29742148 -3.76548241 9.03310974 -1 6 C-0.20309162 2.81237891 -0.20309162 2.81237891 0 0 Z M4 13 C4 16.3 4 19.6 4 23 C4.99 23.33 5.98 23.66 7 24 C10.09982115 20.24867114 10.09982115 20.24867114 10.8125 15.6875 C10.11847389 14.00835708 10.11847389 14.00835708 9 13 C7.35 13 5.7 13 4 13 Z " fill="#444444" transform="translate(133,415)"/>
<path d="M0 0 C3.17816045 1.05938682 4.96321443 2.55021987 7.42578125 4.80859375 C8.21597656 5.51886719 9.00617188 6.22914063 9.8203125 6.9609375 C11.61328125 8.87109375 11.61328125 8.87109375 11.61328125 10.87109375 C12.27328125 10.87109375 12.93328125 10.87109375 13.61328125 10.87109375 C14.87660308 15.08216653 14.61770081 17.41676465 12.67578125 21.24609375 C12.00353246 22.46297799 11.32093874 23.67445405 10.61328125 24.87109375 C9.95328125 24.87109375 9.29328125 24.87109375 8.61328125 24.87109375 C8.42765625 25.48984375 8.24203125 26.10859375 8.05078125 26.74609375 C5.89890892 29.92712241 3.23794362 30.06561322 -0.38671875 30.87109375 C-0.9178125 30.2678125 -1.44890625 29.66453125 -1.99609375 29.04296875 C-3.05570312 27.84414063 -3.05570312 27.84414063 -4.13671875 26.62109375 C-4.8328125 25.8321875 -5.52890625 25.04328125 -6.24609375 24.23046875 C-8.33708575 21.85867219 -8.33708575 21.85867219 -10.60546875 19.80859375 C-13.13244702 17.05995072 -13.1071507 14.50547845 -13.38671875 10.87109375 C-9.43944287 10.69167212 -6.78866745 10.77758686 -3.38671875 12.87109375 C-3.05671875 11.55109375 -2.72671875 10.23109375 -2.38671875 8.87109375 C-3.37671875 8.21109375 -4.36671875 7.55109375 -5.38671875 6.87109375 C-5.76171875 4.37109375 -5.76171875 4.37109375 -5.38671875 1.87109375 C-2.38671875 -0.12890625 -2.38671875 -0.12890625 0 0 Z M4.61328125 14.87109375 C3.95328125 16.52109375 3.29328125 18.17109375 2.61328125 19.87109375 C3.60328125 19.21109375 4.59328125 18.55109375 5.61328125 17.87109375 C5.28328125 16.88109375 4.95328125 15.89109375 4.61328125 14.87109375 Z " fill="#303030" transform="translate(358.38671875,376.12890625)"/>
<path d="M0 0 C11.95865237 5.66462481 11.95865237 5.66462481 15 9 C15.6875 12.5 15.6875 12.5 15 16 C13.25 18.4375 13.25 18.4375 11 21 C9.89765936 23.04607112 8.90552538 25.12152986 7.9296875 27.23046875 C7 29 7 29 5 31 C1.875 31.125 1.875 31.125 -1 31 C-1 30.34 -1 29.68 -1 29 C-2.1446875 28.566875 -2.1446875 28.566875 -3.3125 28.125 C-6 27 -6 27 -9 25 C-9 24.34 -9 23.68 -9 23 C-9.66 23 -10.32 23 -11 23 C-11 21.02 -11 19.04 -11 17 C-9.02 16.67 -7.04 16.34 -5 16 C-5.2475 15.4225 -5.495 14.845 -5.75 14.25 C-5.8325 13.5075 -5.915 12.765 -6 12 C-4.68799596 10.64567325 -3.35368596 9.31266518 -2 8 C-2 6.68 -2 5.36 -2 4 C-1 1.75 -1 1.75 0 0 Z " fill="#282828" transform="translate(118,405)"/>
<path d="M0 0 C4.29 0 8.58 0 13 0 C16.4535669 5.23605304 18.06803348 9.65927983 18 16 C17 17 17 17 14.5 17.125 C12 17 12 17 11 16 C11 17.32 11 18.64 11 20 C10.46375 20.12375 9.9275 20.2475 9.375 20.375 C7.58414781 20.84627689 5.81552936 21.40322405 4.0625 22 C1.37264886 22.87831874 -1.21801408 23.50906131 -4 24 C-4 23.34 -4 22.68 -4 22 C-4.99 21.67 -5.98 21.34 -7 21 C-7.984375 18.234375 -7.984375 18.234375 -8.75 14.75 C-9.14445312 13.04070312 -9.14445312 13.04070312 -9.546875 11.296875 C-9.98045522 8.14220509 -9.84561678 6.0396495 -9 3 C-7.1875 2.375 -7.1875 2.375 -5 2 C-4.01 2.66 -3.02 3.32 -2 4 C-1.34 2.68 -0.68 1.36 0 0 Z M-1 8 C0 10 0 10 0 10 Z M8 8 C8 9.65 8 11.3 8 13 C8.33 13 8.66 13 9 13 C9 11.35 9 9.7 9 8 C8.67 8 8.34 8 8 8 Z M0 11 C1 13 1 13 1 13 Z M9 13 C10 15 10 15 10 15 Z " fill="#3F3F3F" transform="translate(389,222)"/>
<path d="M0 0 C0.33 0 0.66 0 1 0 C1.33 2.64 1.66 5.28 2 8 C4.475 8.495 4.475 8.495 7 9 C7.19412181 10.47831221 7.38012131 11.95769316 7.5625 13.4375 C7.66691406 14.26121094 7.77132813 15.08492188 7.87890625 15.93359375 C7.91886719 16.61550781 7.95882813 17.29742187 8 18 C7 19 7 19 3.62109375 19.09765625 C2.22652923 19.09098369 0.83198257 19.07902532 -0.5625 19.0625 C-1.27341797 19.05798828 -1.98433594 19.05347656 -2.71679688 19.04882812 C-4.47790013 19.03700864 -6.23896036 19.01907263 -8 19 C-8.99 21.475 -8.99 21.475 -10 24 C-4.72 24.66 0.56 25.32 6 26 C7 31 7 31 5.5625 33.8125 C5.046875 34.534375 4.53125 35.25625 4 36 C-3.59064664 35.51298949 -10.67059167 34.00236413 -18 32 C-19.33397158 25.59693644 -18.94157304 20.81096865 -15.94921875 14.9375 C-14.43806879 12.72649593 -13.28618082 11.41587335 -11 10 C-6.93205035 9.42405305 -3.0782117 9.58425997 1 10 C0.67 9.67 0.34 9.34 0 9 C-0.07179964 7.48071962 -0.08392007 5.95832518 -0.0625 4.4375 C-0.05347656 3.61121094 -0.04445313 2.78492188 -0.03515625 1.93359375 C-0.02355469 1.29550781 -0.01195312 0.65742188 0 0 Z " fill="#3A3A3A" transform="translate(404,273)"/>
<path d="M0 0 C3.28175318 2.52968474 4.69243777 4.07731331 6 8 C6.66 8 7.32 8 8 8 C8.46114432 16.79590094 8.46114432 16.79590094 6.875 20.9375 C3.62057906 24.51736304 0.38626136 25.73844125 -4.3125 26.625 C-9.7623556 25.70129566 -13.34469394 23.10638638 -17 19 C-18.8945008 14.78267649 -18.17181041 11.60638967 -16.9375 7.25 C-12.99757942 0.64110096 -7.43835616 -1.61643835 0 0 Z M-9 11 C-9.41666667 13.5 -9.41666667 13.5 -9 16 C-6.30486239 18.28287629 -6.30486239 18.28287629 -3.9375 17.6875 C-1.95524751 17.02860761 -1.95524751 17.02860761 0 16 C-0.33 13.69 -0.66 11.38 -1 9 C-5.49304582 8.57496554 -5.49304582 8.57496554 -9 11 Z " fill="#313131" transform="translate(92,155)"/>
<path d="M0 0 C4.49904812 0.40900437 7.91598597 1.41015327 11.4375 4.3125 C13.96302352 8.48475986 14.64569747 12.0170491 13.875 16.8125 C12.4375 19.3125 12.4375 19.3125 10.3125 20.1875 C9.69375 20.22875 9.075 20.27 8.4375 20.3125 C9.0975 21.3025 9.7575 22.2925 10.4375 23.3125 C10.625 25.9375 10.625 25.9375 10.4375 28.3125 C9.4375 29.3125 9.4375 29.3125 7.0625 29.6875 C4.4375 29.3125 4.4375 29.3125 2.75 27.125 C1.54738521 24.54796831 0.4276342 21.97824592 -0.5625 19.3125 C-1.2121875 20.5190625 -1.2121875 20.5190625 -1.875 21.75 C-3.5625 24.3125 -3.5625 24.3125 -6.5625 25.3125 C-7.5525 24.9825 -8.5425 24.6525 -9.5625 24.3125 C-9.9206841 18.50534505 -8.78308458 14.30061179 -6.625 8.9375 C-6.34720703 8.21433594 -6.06941406 7.49117188 -5.78320312 6.74609375 C-3.31425838 0.40417785 -3.31425838 0.40417785 0 0 Z M2.4375 9.3125 C2.1075 10.3025 1.7775 11.2925 1.4375 12.3125 C3.0875 12.3125 4.7375 12.3125 6.4375 12.3125 C5.45899805 11.29145449 4.45769573 10.2918879 3.4375 9.3125 C3.1075 9.3125 2.7775 9.3125 2.4375 9.3125 Z " fill="#292929" transform="translate(279.5625,98.6875)"/>
<path d="M0 0 C3 0.125 3 0.125 4 1.125 C4.04063832 2.79117115 4.042721 4.45888095 4 6.125 C4.556875 5.856875 5.11375 5.58875 5.6875 5.3125 C6.450625 5.250625 7.21375 5.18875 8 5.125 C10.5625 7.3125 10.5625 7.3125 13 10.125 C13.8971875 11.115 13.8971875 11.115 14.8125 12.125 C16.28497775 14.60496253 16.23631935 16.28916781 16 19.125 C13.69 19.455 11.38 19.785 9 20.125 C8.34 19.135 7.68 18.145 7 17.125 C6.01 17.125 5.02 17.125 4 17.125 C4 20.095 4 23.065 4 26.125 C1.10990779 27.00808373 -0.36752271 27.44123864 -3.125 26.0625 C-5.4419995 23.66826718 -6.51275502 21.09948997 -8 18.125 C-8.9075 17.320625 -9.815 16.51625 -10.75 15.6875 C-13 13.125 -13 13.125 -12.8125 9.3125 C-12.544375 8.260625 -12.27625 7.20875 -12 6.125 C-10.35 6.125 -8.7 6.125 -7 6.125 C-7 6.785 -7 7.445 -7 8.125 C-6.34 8.125 -5.68 8.125 -5 8.125 C-4.855625 6.990625 -4.71125 5.85625 -4.5625 4.6875 C-3.84768212 0.16032009 -3.84768212 0.16032009 0 0 Z " fill="#303030" transform="translate(120,122.875)"/>
<path d="M0 0 C0.75 2.75 0.75 2.75 1 6 C-0.8125 8.375 -0.8125 8.375 -3 10 C-3.66 10 -4.32 10 -5 10 C-5 10.66 -5 11.32 -5 12 C-5.99 12.495 -5.99 12.495 -7 13 C-7.65555119 15.52733235 -7.65555119 15.52733235 -8 18 C-6.35 18 -4.7 18 -3 18 C-3 17.34 -3 16.68 -3 16 C-0.17227333 12.85445967 2.59770871 10.24929623 6.8125 9.5 C9 10 9 10 11 12 C10.8505979 15.1735066 10.41544282 16.58718103 8.14453125 18.84375 C7.37496094 19.3903125 6.60539062 19.936875 5.8125 20.5 C2.96792488 22.5556676 0.30617491 24.59732906 -2.25 27 C-5 29 -5 29 -7.5 29.25 C-11.88872724 27.05563638 -15.07928831 23.64513854 -16.70703125 18.96875 C-17.55731028 14.11001266 -16.68801613 11.0320242 -14 7 C-9.63728855 2.07796656 -6.65914738 -0.36995263 0 0 Z " fill="#373737" transform="translate(359,147)"/>
<path d="M0 0 C0.66 0.66 1.32 1.32 2 2 C1.625 4.625 1.625 4.625 1 7 C-2.26913624 8.03115279 -4.86041348 7.9638984 -8.25 7.5625 C-9.58804688 7.40974609 -9.58804688 7.40974609 -10.953125 7.25390625 C-11.62859375 7.17011719 -12.3040625 7.08632812 -13 7 C-13.66 8.65 -14.32 10.3 -15 12 C-14.16855469 12.06058594 -13.33710937 12.12117187 -12.48046875 12.18359375 C-11.39378906 12.26738281 -10.30710937 12.35117188 -9.1875 12.4375 C-8.10855469 12.51871094 -7.02960937 12.59992188 -5.91796875 12.68359375 C-3 13 -3 13 0 14 C0.625 16.3125 0.625 16.3125 1 19 C0.34 19.99 -0.32 20.98 -1 22 C-7.88302674 22.76478075 -17.81544004 22.40530385 -23.39453125 18.19140625 C-25.25511261 15.65178059 -25.43595629 14.7555424 -25 11.6875 C-24.24866423 7.0491516 -22.71062265 3.82676139 -20 0 C-13.67601641 -2.10799453 -6.47783263 -1.13646186 0 0 Z " fill="#343434" transform="translate(61,243)"/>
<path d="M0 0 C1.32 2.97 2.64 5.94 4 9 C5.134375 8.979375 6.26875 8.95875 7.4375 8.9375 C11 9 11 9 12 10 C12.04092937 12.33297433 12.04241723 14.66705225 12 17 C7.71 17.66 3.42 18.32 -1 19 C-1 19.66 -1 20.32 -1 21 C-2.43146378 21.41713515 -3.87058886 21.8080497 -5.3125 22.1875 C-6.11300781 22.40792969 -6.91351563 22.62835938 -7.73828125 22.85546875 C-10 23 -10 23 -11.72265625 21.8046875 C-13.13250736 19.81278777 -13.63553851 18.31806269 -14.125 15.9375 C-14.59354983 13.73038369 -14.9869362 12.02612759 -16 10 C-16.039992 8.00039988 -16.04346799 5.99952758 -16 4 C-14.72942818 3.52014033 -13.45853152 3.0411407 -12.1875 2.5625 C-11.47980469 2.29566406 -10.77210937 2.02882813 -10.04296875 1.75390625 C-6.48700101 0.44166577 -3.78403834 -0.10227131 0 0 Z M-7 9 C-6.67 10.32 -6.34 11.64 -6 13 C-5.34 12.67 -4.68 12.34 -4 12 C-4.33 11.01 -4.66 10.02 -5 9 C-5.66 9 -6.32 9 -7 9 Z " fill="#313131" transform="translate(58,323)"/>
<path d="M0 0 C0.99 0.0309375 0.99 0.0309375 2 0.0625 C3.21858107 2.49966215 3.12925575 4.09524057 3.1328125 6.81640625 C3.13474609 8.22116211 3.13474609 8.22116211 3.13671875 9.65429688 C3.13285156 10.63462891 3.12898438 11.61496094 3.125 12.625 C3.13080078 14.10129883 3.13080078 14.10129883 3.13671875 15.60742188 C3.13542969 16.54263672 3.13414062 17.47785156 3.1328125 18.44140625 C3.13168457 19.3032251 3.13055664 20.16504395 3.12939453 21.05297852 C3 23.0625 3 23.0625 2 24.0625 C-0.5 24.1875 -0.5 24.1875 -3 24.0625 C-4 23.0625 -4 23.0625 -4.0625 20 C-4.0315625 18.5459375 -4.0315625 18.5459375 -4 17.0625 C-5.65 17.0625 -7.3 17.0625 -9 17.0625 C-8.938125 18.485625 -8.938125 18.485625 -8.875 19.9375 C-9 23.0625 -9 23.0625 -11 25.0625 C-12.32 25.0625 -13.64 25.0625 -15 25.0625 C-18.41480675 19.94028987 -17.75105884 14.02402954 -17 8.0625 C-15.59550171 4.8352521 -14.00250827 2.90336131 -11 1.0625 C-7.36151519 -0.0864952 -3.79259357 0.07901237 0 0 Z M-8 7.0625 C-8.33 7.7225 -8.66 8.3825 -9 9.0625 C-7.35 9.0625 -5.7 9.0625 -4 9.0625 C-4 8.4025 -4 7.7425 -4 7.0625 C-5.32 7.0625 -6.64 7.0625 -8 7.0625 Z " fill="#1C1C1C" transform="translate(226,90.9375)"/>
<path d="M0 0 C4 4.75 4 4.75 4 7 C4.89332031 7.38478516 4.89332031 7.38478516 5.8046875 7.77734375 C8.19696371 9.10969687 9.42728199 10.43368605 11.125 12.5625 C13.20903634 15.21025666 13.20903634 15.21025666 16 17 C15.88835829 20.79581799 14.65809541 22.70854157 12 25.25 C8.5823981 27.933761 5.62730788 29.14039547 1.28125 29.37109375 C-2.99616364 28.6752816 -6.09135734 26.1039472 -9 23 C-10.22265625 20.79296875 -10.22265625 20.79296875 -11 19 C-11.66 19 -12.32 19 -13 19 C-13.38218767 17.34385343 -13.71395102 15.67542976 -14 14 C-13 13 -13 13 -10.375 12.5 C-5.90574286 13.16211217 -4.51943112 15.18434704 -1.7109375 18.56640625 C-1.14632813 19.03949219 -0.58171875 19.51257813 0 20 C2.18437809 19.8116275 2.18437809 19.8116275 4 19 C2.83028133 15.95873146 1.25261858 14.25588457 -1.125 12.125 C-3.65730687 9.71562065 -3.9661975 9.30422253 -4.375 5.625 C-4.25125 4.75875 -4.1275 3.8925 -4 3 C-2.68 2.67 -1.36 2.34 0 2 C0 1.34 0 0.68 0 0 Z " fill="#2B2B2B" transform="translate(344,390)"/>
<path d="M0 0 C1.65 0 3.3 0 5 0 C5 0.99 5 1.98 5 3 C3.68 2.67 2.36 2.34 1 2 C0.7621841 4.91450975 0.7151289 6.54002465 2.27734375 9.0625 C2.82519531 9.701875 3.37304688 10.34125 3.9375 11 C6.36093255 14.03213509 7.67923648 16.04391653 8 20 C8.3403125 21.299375 8.3403125 21.299375 8.6875 22.625 C9 25 9 25 7 28 C4.578125 28.44921875 4.578125 28.44921875 2 28 C0.234375 26.20703125 0.234375 26.20703125 -1.25 23.8125 C-1.75015625 23.03519531 -2.2503125 22.25789063 -2.765625 21.45703125 C-4.02794805 18.94436924 -4.58676777 16.76963985 -5 14 C-6.0725 14.66 -7.145 15.32 -8.25 16 C-11.30980686 17.88295807 -12.1335864 18 -16 18 C-16 18.66 -16 19.32 -16 20 C-16.66 19.67 -17.32 19.34 -18 19 C-18 17.35 -18 15.7 -18 14 C-19.32 13.67 -20.64 13.34 -22 13 C-20.68 13 -19.36 13 -18 13 C-18 12.34 -18 11.68 -18 11 C-15.515625 9.2734375 -15.515625 9.2734375 -12.25 7.375 C-11.18265625 6.74335938 -10.1153125 6.11171875 -9.015625 5.4609375 C-6 4 -6 4 -2 4 C-1.34 2.68 -0.68 1.36 0 0 Z " fill="#434343" transform="translate(314,414)"/>
<path d="M0 0 C3.1875 2.1875 3.1875 2.1875 6 5 C6.928125 5.825 7.85625 6.65 8.8125 7.5 C11.14307017 10.16350877 11.81607227 11.50537313 12 15 C11.67 15.99 11.34 16.98 11 18 C8.03 17.34 5.06 16.68 2 16 C1.41992188 16.73347656 0.83984375 17.46695313 0.2421875 18.22265625 C-0.92957031 19.62837891 -0.92957031 19.62837891 -2.125 21.0625 C-2.89070313 22.00222656 -3.65640625 22.94195312 -4.4453125 23.91015625 C-7 26 -7 26 -10.3046875 25.80859375 C-11.19414062 25.54175781 -12.08359375 25.27492187 -13 25 C-13.2295711 21.63295715 -13.33943529 19.58629732 -11.625 16.625 C-11.08875 16.08875 -10.5525 15.5525 -10 15 C-9.34 15 -8.68 15 -8 15 C-6.5393715 12.35261084 -6 11.10551666 -6 8 C-7.73657722 4.20573865 -7.73657722 4.20573865 -11.1875 2.1875 C-11.785625 2.125625 -12.38375 2.06375 -13 2 C-12.01 1.67 -11.02 1.34 -10 1 C-6.76707844 -0.61646078 -3.49519627 -0.58144387 0 0 Z " fill="#3E3E3E" transform="translate(342,131)"/>
<path d="M0 0 C1.4540625 0.0309375 1.4540625 0.0309375 2.9375 0.0625 C4.96969488 3.46601338 5.30641039 6.3857927 5.5625 10.3125 C5.63726562 11.39015625 5.71203125 12.4678125 5.7890625 13.578125 C5.86253906 14.80789063 5.86253906 14.80789063 5.9375 16.0625 C7.21625 16.083125 8.495 16.10375 9.8125 16.125 C10.53179687 16.13660156 11.25109375 16.14820313 11.9921875 16.16015625 C14.01935404 16.18899242 14.01935404 16.18899242 15.9375 15.0625 C16.25 17.3125 16.25 17.3125 15.9375 20.0625 C11.29867637 24.57595002 7.22897889 25.2619956 0.9375 25.8125 C-0.3 25.93109375 -1.5375 26.0496875 -2.8125 26.171875 C-6.0625 26.0625 -6.0625 26.0625 -8.0078125 24.70703125 C-9.0625 23.0625 -9.0625 23.0625 -8.9375 21 C-8.0625 19.0625 -8.0625 19.0625 -5.0625 17.0625 C-4.0725 17.0625 -3.0825 17.0625 -2.0625 17.0625 C-2.206875 16.41023438 -2.35125 15.75796875 -2.5 15.0859375 C-3.50306732 10.3631622 -4.43618921 5.92045969 -4.0625 1.0625 C-3.0625 0.0625 -3.0625 0.0625 0 0 Z " fill="#393939" transform="translate(249.0625,440.9375)"/>
<path d="M0 0 C1.23073242 -0.05607422 1.23073242 -0.05607422 2.48632812 -0.11328125 C8.54534241 -0.20173401 8.54534241 -0.20173401 11.6796875 2.61328125 C13.05578202 5.13374452 13.93989933 7.13699665 14.5 9.9375 C14.66113281 10.68128906 14.82226562 11.42507813 14.98828125 12.19140625 C15.2000098 14.51211722 14.88388582 16.16560326 14.1875 18.375 C12.18795254 18.41754356 10.18708364 18.41580783 8.1875 18.375 C7.1875 17.375 7.1875 17.375 7.08984375 15.52734375 C7.12239583 13.4765625 7.15494792 11.42578125 7.1875 9.375 C3.8875 9.045 0.5875 8.715 -2.8125 8.375 C-2.8125 12.005 -2.8125 15.635 -2.8125 19.375 C-4.8039056 19.75633299 -6.80529077 20.08825582 -8.8125 20.375 C-10.3345959 18.8529041 -9.94209521 17.49289918 -9.9453125 15.375 C-9.94660156 14.570625 -9.94789063 13.76625 -9.94921875 12.9375 C-9.94535156 12.091875 -9.94148438 11.24625 -9.9375 10.375 C-9.94136719 9.529375 -9.94523437 8.68375 -9.94921875 7.8125 C-9.94792969 7.008125 -9.94664062 6.20375 -9.9453125 5.375 C-9.94418457 4.6325 -9.94305664 3.89 -9.94189453 3.125 C-9.59756268 -1.53192593 -3.54925262 0.060483 0 0 Z " fill="#1E1E1E" transform="translate(397.8125,263.625)"/>
<path d="M0 0 C2.671875 0.38671875 2.671875 0.38671875 4.65625 2.6171875 C5.53023437 4.08091797 5.53023437 4.08091797 6.421875 5.57421875 C7.01484375 6.53714844 7.6078125 7.50007813 8.21875 8.4921875 C9.57906978 11.20185674 10.25717766 13.40198923 10.671875 16.38671875 C11.661875 16.38671875 12.651875 16.38671875 13.671875 16.38671875 C13.341875 17.04671875 13.011875 17.70671875 12.671875 18.38671875 C11.351875 18.38671875 10.031875 18.38671875 8.671875 18.38671875 C8.011875 19.70671875 7.351875 21.02671875 6.671875 22.38671875 C6.341875 21.72671875 6.011875 21.06671875 5.671875 20.38671875 C4.94742188 20.89203125 4.22296875 21.39734375 3.4765625 21.91796875 C2.50976562 22.56765625 1.54296875 23.21734375 0.546875 23.88671875 C-0.40445313 24.53640625 -1.35578125 25.18609375 -2.3359375 25.85546875 C-5.63830323 27.54545226 -7.67286608 27.69041979 -11.328125 27.38671875 C-11.658125 25.40671875 -11.988125 23.42671875 -12.328125 21.38671875 C-10.7072037 20.2143919 -9.08125667 19.04901105 -7.453125 17.88671875 C-6.54820313 17.23703125 -5.64328125 16.58734375 -4.7109375 15.91796875 C-2.328125 14.38671875 -2.328125 14.38671875 -0.328125 14.38671875 C-0.328125 13.06671875 -0.328125 11.74671875 -0.328125 10.38671875 C-0.988125 10.38671875 -1.648125 10.38671875 -2.328125 10.38671875 C-3.91350818 7.86875722 -4.3654906 6.70806289 -4.015625 3.69921875 C-3.06733217 0.50950652 -3.06733217 0.50950652 0 0 Z " fill="#444444" transform="translate(80.328125,360.61328125)"/>
<path d="M0 0 C0.66 0.66 1.32 1.32 2 2 C2.99 2 3.98 2 5 2 C7.33564933 2.31669821 9.6693782 2.64820803 12 3 C11.67 3.66 11.34 4.32 11 5 C12.2375 5.5878125 12.2375 5.5878125 13.5 6.1875 C14.325 6.785625 15.15 7.38375 16 8 C16.3125 10.6875 16.3125 10.6875 16 13 C10.70365711 14.05113079 6.98399876 13.82954816 1.8125 12.3125 C0.62269531 11.97863281 -0.56710937 11.64476562 -1.79296875 11.30078125 C-5.10153584 9.95881676 -6.83429616 8.81704334 -9 6 C-8.75 3.25 -8.75 3.25 -8 1 C-5.03104944 0.01034981 -3.0913386 -0.23779528 0 0 Z " fill="#323232" transform="translate(388,324)"/>
<path d="M0 0 C3.21425466 1.33969327 4.59674018 2.43762363 6.140625 5.5546875 C6.66269531 6.60076172 6.66269531 6.60076172 7.1953125 7.66796875 C7.54335937 8.39628906 7.89140625 9.12460938 8.25 9.875 C8.61351562 10.59558594 8.97703125 11.31617187 9.3515625 12.05859375 C11.18266736 15.79652584 12 17.69753397 12 22 C9.6875 22.6875 9.6875 22.6875 7 23 C3.97164004 20.69651343 2.51322143 17.52595318 0.8125 14.1875 C0.28269531 13.17042969 -0.24710938 12.15335938 -0.79296875 11.10546875 C-2.08469168 7.78210393 -2.38787875 5.53120788 -2 2 C-1.34 1.34 -0.68 0.68 0 0 Z " fill="#282828" transform="translate(137,113)"/>
<path d="M0 0 C2.5625 0.1875 2.5625 0.1875 4.5625 2.1875 C4.25084559 4.19099261 3.91486497 6.19076516 3.5625 8.1875 C3.93108988 10.95614953 3.93108988 10.95614953 4.5625 13.1875 C3.5725 13.6825 3.5725 13.6825 2.5625 14.1875 C2.2325 12.5375 1.9025 10.8875 1.5625 9.1875 C0.5725 8.8575 -0.4175 8.5275 -1.4375 8.1875 C-1.7675 9.1775 -2.0975 10.1675 -2.4375 11.1875 C-3.0975 10.8575 -3.7575 10.5275 -4.4375 10.1875 C-4.1075 9.1975 -3.7775 8.2075 -3.4375 7.1875 C-3.4375 6.15625 -3.4375 5.125 -3.4375 4.0625 C-3.4375 0.26442308 -3.4375 0.26442308 0 0 Z " fill="#D5D5D5" transform="translate(56.4375,271.8125)"/>
<path d="M0 0 C-2.97417698 1.66924855 -4.36472729 2.02315729 -7.9375 2.25 C-11.25040546 2.65250253 -12.13595762 3.09913576 -15 5.1875 C-18.62414374 10.13725337 -17.51970744 17.20897424 -17 23 C-16.67 23.66 -16.34 24.32 -16 25 C-17.32 25.33 -18.64 25.66 -20 26 C-19.67 24.35 -19.34 22.7 -19 21 C-19.66 21 -20.32 21 -21 21 C-20.7215625 20.01 -20.7215625 20.01 -20.4375 19 C-20.03375757 16.23148049 -20.16184756 14.57423252 -20.625 11.875 C-21 8 -21 8 -19.6875 6.1875 C-19.130625 5.795625 -18.57375 5.40375 -18 5 C-17.34 4.01 -16.68 3.02 -16 2 C-10.61262348 -0.08898273 -5.73213046 -0.23396451 0 0 Z " fill="#DCDCDC" transform="translate(227,90)"/>
<path d="M0 0 C2.4375 0.6875 2.4375 0.6875 5 2 C5.9375 4.5 5.9375 4.5 6 7 C4 9 4 9 1.5 9.3125 C0.2625 9.1578125 0.2625 9.1578125 -1 9 C-3 6 -3 6 -2.75 3.9375 C-2 2 -2 2 0 0 Z " fill="#717171" transform="translate(233,441)"/>
<path d="M0 0 C0 1.98 0 3.96 0 6 C-4.75 7.125 -4.75 7.125 -7 6 C-7.73075648 3.6859378 -8.40138258 1.35171131 -9 -1 C-5.22102349 -2.0497157 -3.35080929 -2.10976881 0 0 Z " fill="#5D5D5D" transform="translate(381,211)"/>
<path d="M0 0 C0.99 0.66 1.98 1.32 3 2 C3.25 5.0625 3.25 5.0625 3 8 C2.67 8.33 2.34 8.66 2 9 C0.865625 8.95875 -0.26875 8.9175 -1.4375 8.875 C-3.2009375 8.936875 -3.2009375 8.936875 -5 9 C-5.99 10.485 -5.99 10.485 -7 12 C-10.625 12.1875 -10.625 12.1875 -14 12 C-14.66 10.02 -15.32 8.04 -16 6 C-15.34 5.67 -14.68 5.34 -14 5 C-13.3503125 6.2375 -13.3503125 6.2375 -12.6875 7.5 C-12.130625 8.325 -11.57375 9.15 -11 10 C-10.01 10 -9.02 10 -8 10 C-7.34 8.02 -6.68 6.04 -6 4 C-5.38125 4.7425 -5.38125 4.7425 -4.75 5.5 C-2.87797662 7.43386092 -2.87797662 7.43386092 1 7 C0.67 4.69 0.34 2.38 0 0 Z " fill="#D5D5D5" transform="translate(391,194)"/>
<path d="M0 0 C0.66 0.66 1.32 1.32 2 2 C1.0615625 2.68707031 0.123125 3.37414062 -0.84375 4.08203125 C-2.06287456 4.99168573 -3.28160429 5.90186953 -4.5 6.8125 C-5.43005859 7.49022461 -5.43005859 7.49022461 -6.37890625 8.18164062 C-7.97533962 9.38335146 -9.49417079 10.68653633 -11 12 C-11 12.99 -11 13.98 -11 15 C-9.02 15 -7.04 15 -5 15 C-5.33 15.66 -5.66 16.32 -6 17 C-7.98 17 -9.96 17 -12 17 C-12.33 15.35 -12.66 13.7 -13 12 C-13.99 12 -14.98 12 -16 12 C-15.67 11.34 -15.34 10.68 -15 10 C-14.43796875 9.88785156 -13.8759375 9.77570313 -13.296875 9.66015625 C-9.95128839 8.69858459 -7.89245832 6.67100644 -5.25 4.4375 C-4.26515625 3.61121094 -3.2803125 2.78492188 -2.265625 1.93359375 C-1.51796875 1.29550781 -0.7703125 0.65742188 0 0 Z " fill="#C7C7C7" transform="translate(366,165)"/>
<path d="M0 0 C0.99 0.495 0.99 0.495 2 1 C2.39764263 2.98821313 2.72428861 4.99124558 3 7 C3.17273438 7.58652344 3.34546875 8.17304687 3.5234375 8.77734375 C4.1704438 11.79493872 4.0933235 14.66765038 4.0625 17.75 C4.05347656 18.92046875 4.04445312 20.0909375 4.03515625 21.296875 C4.02355469 22.18890625 4.01195312 23.0809375 4 24 C2.68 23.67 1.36 23.34 0 23 C0 15.41 0 7.82 0 0 Z " fill="#BABABA" transform="translate(228,91)"/>
<path d="M0 0 C0.99 0.33 1.98 0.66 3 1 C0.525 2.485 0.525 2.485 -2 4 C-1.67 6.31 -1.34 8.62 -1 11 C-1.99 11.495 -1.99 11.495 -3 12 C-3.99 10.35 -4.98 8.7 -6 7 C-6.99 7.33 -7.98 7.66 -9 8 C-9.33 9.65 -9.66 11.3 -10 13 C-10.66 12.34 -11.32 11.68 -12 11 C-11.44444444 6.44444444 -11.44444444 6.44444444 -10 5 C-9.2575 5.0825 -8.515 5.165 -7.75 5.25 C-3.83805515 4.89436865 -2.51119041 2.86993189 0 0 Z " fill="#C2C2C2" transform="translate(145,107)"/>
<path d="M0 0 C3.63 0.66 7.26 1.32 11 2 C11 2.99 11 3.98 11 5 C7.7 4.67 4.4 4.34 1 4 C1.33 5.98 1.66 7.96 2 10 C0.68 10.33 -0.64 10.66 -2 11 C-2 7.06121709 -1.2432943 3.7298829 0 0 Z " fill="#C7C7C7" transform="translate(181,444)"/>
<path d="M0 0 C0.33 0 0.66 0 1 0 C1.33 2.64 1.66 5.28 2 8 C3.65 8.33 5.3 8.66 7 9 C6.67 9.99 6.34 10.98 6 12 C0.06 12.33 -5.88 12.66 -12 13 C-11.34 12.01 -10.68 11.02 -10 10 C-7.3984375 9.70703125 -7.3984375 9.70703125 -4.375 9.8125 C-2.87066406 9.85310547 -2.87066406 9.85310547 -1.3359375 9.89453125 C-0.56507813 9.92933594 0.20578125 9.96414063 1 10 C0.67 9.67 0.34 9.34 0 9 C-0.07179964 7.48071962 -0.08392007 5.95832518 -0.0625 4.4375 C-0.05347656 3.61121094 -0.04445313 2.78492188 -0.03515625 1.93359375 C-0.02355469 1.29550781 -0.01195312 0.65742188 0 0 Z " fill="#BDBDBD" transform="translate(404,273)"/>
<path d="M0 0 C2.01822917 0.06510417 4.03645833 0.13020833 6.0546875 0.1953125 C6.7146875 1.5153125 7.3746875 2.8353125 8.0546875 4.1953125 C7.0646875 4.6903125 7.0646875 4.6903125 6.0546875 5.1953125 C5.7246875 4.2053125 5.3946875 3.2153125 5.0546875 2.1953125 C2.26629446 1.69265558 2.26629446 1.69265558 -0.9453125 2.1953125 C-2.91255382 4.01860934 -4.32558998 6.03568247 -5.9453125 8.1953125 C-6.6053125 8.1953125 -7.2653125 8.1953125 -7.9453125 8.1953125 C-7.9453125 9.8453125 -7.9453125 11.4953125 -7.9453125 13.1953125 C-8.2753125 13.1953125 -8.6053125 13.1953125 -8.9453125 13.1953125 C-9.2578125 10.5078125 -9.2578125 10.5078125 -8.9453125 7.1953125 C-6.5703125 4.4453125 -6.5703125 4.4453125 -3.9453125 2.1953125 C-1.9453125 0.1953125 -1.9453125 0.1953125 0 0 Z " fill="#A8A8A8" transform="translate(43.9453125,279.8046875)"/>
<path d="M0 0 C0.66 0 1.32 0 2 0 C2.33 5.61 2.66 11.22 3 17 C2.01 16.67 1.02 16.34 0 16 C-1.60725635 12.78548731 -1.05748185 9.56387464 -1 6 C-0.34 6 0.32 6 1 6 C0.67 4.02 0.34 2.04 0 0 Z " fill="#BFBFBF" transform="translate(216,450)"/>
<path d="M0 0 C2.97 0.495 2.97 0.495 6 1 C6.33 2.65 6.66 4.3 7 6 C4.69 6 2.38 6 0 6 C-0.99 8.64 -1.98 11.28 -3 14 C-4.10084497 9.59662012 -3.7915332 8.73201586 -2.0625 4.75 C-1.68222656 3.85796875 -1.30195313 2.9659375 -0.91015625 2.046875 C-0.60980469 1.37140625 -0.30945313 0.6959375 0 0 Z M1 1 C0.67 1.99 0.34 2.98 0 4 C1.65 4 3.3 4 5 4 C4.02149805 2.97895449 3.02019573 1.9793879 2 1 C1.67 1 1.34 1 1 1 Z " fill="#BFBFBF" transform="translate(281,107)"/>
<path d="M0 0 C0.99 0.66 1.98 1.32 3 2 C1.35 2.33 -0.3 2.66 -2 3 C-2 4.98 -2 6.96 -2 9 C-1.360625 9.268125 -0.72125 9.53625 -0.0625 9.8125 C2 11 2 11 3 14 C-0.18844618 13.05208357 -1.75485405 12.30234667 -3.875 9.6875 C-5.19909079 6.52439423 -5.28417143 5.16762287 -4 2 C-1.9375 0.6875 -1.9375 0.6875 0 0 Z " fill="#D2D2D2" transform="translate(117,413)"/>
<path d="M0 0 C1 2 1 2 1 5 C4.82097239 4.46930939 7.06171403 3.50298434 10 1 C10 1.66 10 2.32 10 3 C11.45833358 4.62514468 11.45833358 4.62514468 13 6 C11.02 6 9.04 6 7 6 C7 7.65 7 9.3 7 11 C6.67 9.68 6.34 8.36 6 7 C4.5459375 7.0309375 4.5459375 7.0309375 3.0625 7.0625 C0 7 0 7 -1 6 C-1.125 3.5 -1.125 3.5 -1 1 C-0.67 0.67 -0.34 0.34 0 0 Z " fill="#D4D4D4" transform="translate(100,416)"/>
<path d="M0 0 C0.88945313 0.07863281 1.77890625 0.15726562 2.6953125 0.23828125 C3.77425781 0.46064453 3.77425781 0.46064453 4.875 0.6875 C5.205 1.3475 5.535 2.0075 5.875 2.6875 C5.22273438 2.62949219 4.57046875 2.57148438 3.8984375 2.51171875 C-2.33744907 2.14214851 -2.33744907 2.14214851 -7.625 5.0625 C-8.8625 6.361875 -8.8625 6.361875 -10.125 7.6875 C-10.785 8.3475 -11.445 9.0075 -12.125 9.6875 C-11.795 8.3675 -11.465 7.0475 -11.125 5.6875 C-10.465 5.6875 -9.805 5.6875 -9.125 5.6875 C-9.125 5.0275 -9.125 4.3675 -9.125 3.6875 C-8.465 3.3575 -7.805 3.0275 -7.125 2.6875 C-7.455 2.0275 -7.785 1.3675 -8.125 0.6875 C-4.98117176 -0.36044275 -3.25296561 -0.31770947 0 0 Z " fill="#C1C1C1" transform="translate(65.125,341.3125)"/>
<path d="M0 0 C0.66 0.66 1.32 1.32 2 2 C2.99 2 3.98 2 5 2 C7.33564933 2.31669821 9.6693782 2.64820803 12 3 C12 3.33 12 3.66 12 4 C6.20586733 5.0165145 2.68950745 4.82493635 -3 3 C-5.79244045 2.83071457 -5.79244045 2.83071457 -8 3 C-8 2.34 -8 1.68 -8 1 C-5.03104944 0.01034981 -3.0913386 -0.23779528 0 0 Z " fill="#D4D4D4" transform="translate(388,324)"/>
<path d="M0 0 C1.65 0 3.3 0 5 0 C5 0.99 5 1.98 5 3 C3.68 2.67 2.36 2.34 1 2 C0.58947727 5.5920739 0.77208782 6.70992996 3.0625 9.625 C3.701875 10.40875 4.34125 11.1925 5 12 C4.67 12.99 4.34 13.98 4 15 C1.29013684 11.83849298 -0.97921077 9.08315691 -2 5 C-1.125 2.1875 -1.125 2.1875 0 0 Z " fill="#D4D4D4" transform="translate(314,414)"/>
<path d="M0 0 C1.423125 0.2784375 1.423125 0.2784375 2.875 0.5625 C7.64479926 1.26768593 12.24924288 0.62132638 17 0 C15.68 0.33 14.36 0.66 13 1 C13 1.66 13 2.32 13 3 C9.58215962 5.07511737 9.58215962 5.07511737 7.0625 4.75 C4.68483973 3.88539626 2.33540506 2.97308544 0 2 C0 1.34 0 0.68 0 0 Z " fill="#C2C2C2" transform="translate(40,321)"/>
<path d="M0 0 C2.9466603 2.9466603 3.14025749 6.37550225 4.0234375 10.37109375 C5.14688783 13.39542203 6.28291643 14.35074146 9 16 C7.02 16.33 5.04 16.66 3 17 C2.87882813 16.41992188 2.75765625 15.83984375 2.6328125 15.2421875 C1.84950604 11.59077432 1.03403422 8.09852012 -0.1875 4.5625 C-1 2 -1 2 0 0 Z " fill="#B5B5B5" transform="translate(165,108)"/>
<path d="M0 0 C-2.97 1.32 -5.94 2.64 -9 4 C-9 7.3 -9 10.6 -9 14 C-11.36453193 11.63546807 -11.36652704 10.74130071 -11.6875 7.5 C-11.77386719 6.7059375 -11.86023438 5.911875 -11.94921875 5.09375 C-12 3 -12 3 -11 1 C-6.6346171 -0.56494859 -4.57188412 -1.14297103 0 0 Z " fill="#AEAEAE" transform="translate(270,437)"/>
<path d="M0 0 C-2.92960601 1.63118375 -4.44664556 2.04253767 -7.9375 2.375 C-11.95050392 2.77254992 -14.07259849 4.16407979 -17 7 C-16.67 5.35 -16.34 3.7 -16 2 C-10.51324804 0.13216954 -5.77807024 -0.2358396 0 0 Z " fill="#959595" transform="translate(227,90)"/>
<path d="M0 0 C3.8755089 2.11391395 7.00517278 4.64903673 10.25390625 7.59765625 C12.07600173 9.06103942 13.88013512 10.03052131 16 11 C13.5 12.0625 13.5 12.0625 10 12 C7.63956047 9.87123324 5.71700323 7.58369008 3.734375 5.1015625 C2.16897796 2.91566128 2.16897796 2.91566128 0 2 C0 1.34 0 0.68 0 0 Z " fill="#D7D7D7" transform="translate(348,395)"/>
<path d="M0 0 C2.12161334 2.12161334 2.92986249 3.7733159 4.125 6.5 C4.47820312 7.2940625 4.83140625 8.088125 5.1953125 8.90625 C6 11 6 11 6 13 C7.32 13.33 8.64 13.66 10 14 C8.35 14.33 6.7 14.66 5 15 C3.96709159 13.06891037 2.94901328 11.129882 1.9375 9.1875 C1.08478516 7.56908203 1.08478516 7.56908203 0.21484375 5.91796875 C-1 3 -1 3 0 0 Z " fill="#CBCBCB" transform="translate(144,118)"/>
<path d="M0 0 C1.32 0 2.64 0 4 0 C4.625 1.875 4.625 1.875 5 4 C4.34 4.66 3.68 5.32 3 6 C0.875 5.625 0.875 5.625 -1 5 C-0.67 3.35 -0.34 1.7 0 0 Z " fill="#080808" transform="translate(55,273)"/>
<path d="M0 0 C2.125 0.375 2.125 0.375 4 1 C4 1.66 4 2.32 4 3 C-0.41225737 4.47075246 -3.48281619 5.36884358 -8 4 C-8.33 4.66 -8.66 5.32 -9 6 C-9 4.68 -9 3.36 -9 2 C-7.329375 2.061875 -7.329375 2.061875 -5.625 2.125 C-1.95633975 2.41121859 -1.95633975 2.41121859 0 0 Z " fill="#CCCCCC" transform="translate(377,184)"/>
<path d="M0 0 C0.33 0 0.66 0 1 0 C2 3 3 6 4 9 C1 9 1 9 -0.6875 7.5 C-1.120625 7.005 -1.55375 6.51 -2 6 C-1.34 4.02 -0.68 2.04 0 0 Z " fill="#C1C1C1" transform="translate(82,385)"/>
<path d="M0 0 C2.56687367 3.8503105 1.83288724 5.58569763 1 10 C0.01 10.33 -0.98 10.66 -2 11 C-1.34 7.37 -0.68 3.74 0 0 Z " fill="#CACACA" transform="translate(59,224)"/>
<path d="M0 0 C0.66 0.33 1.32 0.66 2 1 C2.042721 2.66611905 2.04063832 4.33382885 2 6 C1 7 1 7 -1.5625 7.0625 C-2.7690625 7.0315625 -2.7690625 7.0315625 -4 7 C-4.33 7.99 -4.66 8.98 -5 10 C-5.66 8.35 -6.32 6.7 -7 5 C-4.66666667 5 -2.33333333 5 0 5 C0 3.35 0 1.7 0 0 Z " fill="#C6C6C6" transform="translate(123,144)"/>
<path d="M0 0 C0.66 0 1.32 0 2 0 C3.24588984 1.47539586 4.48812639 2.95449544 5.69140625 4.46484375 C7.25981645 6.3047996 8.99275368 7.66183579 11 9 C8.70703125 9.24609375 8.70703125 9.24609375 6 9 C4.19921875 7.28515625 4.19921875 7.28515625 2.6875 5.0625 C2.17574219 4.33160156 1.66398437 3.60070312 1.13671875 2.84765625 C0 1 0 1 0 0 Z " fill="#CDCDCD" transform="translate(331,409)"/>
<path d="M0 0 C0.99 0.33 1.98 0.66 3 1 C2.67 4.3 2.34 7.6 2 11 C1.67 11 1.34 11 1 11 C0.67 7.37 0.34 3.74 0 0 Z " fill="#CACACA" transform="translate(400,249)"/>
<path d="M0 0 C0.66 0.66 1.32 1.32 2 2 C-0.64 3.98 -3.28 5.96 -6 8 C-6.66 7.67 -7.32 7.34 -8 7 C-5.36 4.69 -2.72 2.38 0 0 Z " fill="#E3E3E3" transform="translate(366,165)"/>
<path d="M0 0 C0.66 0.33 1.32 0.66 2 1 C2.73075648 3.3140622 3.40138258 5.64828869 4 8 C3.01 7.67 2.02 7.34 1 7 C0.690625 6.34 0.38125 5.68 0.0625 5 C-0.82027141 2.79394438 -0.82027141 2.79394438 -3.125 2.25 C-4.053125 2.12625 -4.053125 2.12625 -5 2 C-4.01 1.67 -3.02 1.34 -2 1 C-1.34 0.67 -0.68 0.34 0 0 Z " fill="#D5D5D5" transform="translate(334,131)"/>
<path d="M0 0 C0.33 0.66 0.66 1.32 1 2 C1.66 2.33 2.32 2.66 3 3 C0.33333333 5.66666667 -2.33333333 8.33333333 -5 11 C-3.55049545 7.2089881 -1.84827434 3.6125362 0 0 Z " fill="#C5C5C5" transform="translate(315,121)"/>
<path d="M0 0 C0.66 0.33 1.32 0.66 2 1 C-1.625 6.75 -1.625 6.75 -5 9 C-4.42647107 5.12867972 -2.51295648 2.91827204 0 0 Z " fill="#6F6F6F" transform="translate(106,409)"/>
<path d="M0 0 C0.36923077 4.55384615 0.36923077 4.55384615 -1.5 6.8125 C-1.995 7.204375 -2.49 7.59625 -3 8 C-3.66 7.67 -4.32 7.34 -5 7 C-4.814375 6.38125 -4.62875 5.7625 -4.4375 5.125 C-3.76313824 2.95839822 -3.76313824 2.95839822 -5 1 C-1.125 0 -1.125 0 0 0 Z " fill="#CECECE" transform="translate(265,456)"/>
<path d="M0 0 C-1.49739583 1.20442708 -2.99479167 2.40885417 -4.4921875 3.61328125 C-6.25292107 5.12270545 -6.25292107 5.12270545 -8 8 C-8.3125 5.1875 -8.3125 5.1875 -8 2 C-4.88411016 -0.61061041 -3.93844351 -1.3128145 0 0 Z " fill="#959595" transform="translate(390,316)"/>
<path d="M0 0 C3.82097239 0.53069061 6.06171403 1.49701566 9 4 C8.67 4.99 8.34 5.98 8 7 C7.236875 6.360625 6.47375 5.72125 5.6875 5.0625 C3.11753287 2.85767219 3.11753287 2.85767219 0 2 C0 1.34 0 0.68 0 0 Z " fill="#D8D8D8" transform="translate(74,175)"/>
<path d="M0 0 C-1.39332574 3.36720387 -2.9789286 4.9859524 -6 7 C-5.6875 4.625 -5.6875 4.625 -5 2 C-2 0 -2 0 0 0 Z " fill="#6D6D6D" transform="translate(83,156)"/>
<path d="M0 0 C0 0.66 0 1.32 0 2 C-4.38461538 5 -4.38461538 5 -7 5 C-6.625 3.0625 -6.625 3.0625 -6 1 C-4 0 -4 0 0 0 Z " fill="#919191" transform="translate(375,351)"/>
<path d="M0 0 C-0.33 0.66 -0.66 1.32 -1 2 C-3.32156597 2.40729228 -5.6568787 2.74438677 -8 3 C-8 2.01 -8 1.02 -8 0 C-4.94736336 -0.98120464 -3.05263664 -0.98120464 0 0 Z " fill="#B6B6B6" transform="translate(180,105)"/>
<path d="M0 0 C0.93065133 2.60582371 1.14917407 3.64198224 0.0625 6.25 C-0.4634375 7.11625 -0.4634375 7.11625 -1 8 C-1.66 7.67 -2.32 7.34 -3 7 C-2.625 4.0625 -2.625 4.0625 -2 1 C-1.34 0.67 -0.68 0.34 0 0 Z " fill="#BCBCBC" transform="translate(52,225)"/>
</svg>
